<svg width="500" height="500" viewBox="0 0 500 500" fill="none" xmlns="http://www.w3.org/2000/svg">
<path d="M434.009 67.7695H119.359V319.79H434.009V67.7695Z" fill="#E6E6E6"/>
<path d="M388.058 256.561H189.828V94.7812H194.988V251.411H388.058V256.561Z" fill="#A5A5A5"/>
<path opacity="0.1" d="M208.519 221.581L203.809 219.491C204.369 218.231 217.649 188.581 233.609 174.661C251.259 159.271 269.769 173.971 287.149 192.151C291.669 196.881 297.279 198.391 303.819 196.621C317.269 192.991 330.619 176.571 333.559 164.311C337.849 146.431 352.669 108.451 371.079 105.141L371.989 110.221C358.439 112.651 343.629 144.461 338.569 165.521C335.279 179.211 320.749 197.401 305.159 201.611C296.769 203.871 289.259 201.831 283.419 195.721C265.389 176.851 250.589 166.701 236.999 178.551C221.899 191.711 208.659 221.291 208.519 221.591V221.581Z" fill="#000001"/>
<path opacity="0.1" d="M138.759 107.891C138.759 107.891 170.579 117.591 158.109 137.081C145.639 156.571 149.489 177.141 149.489 177.141C149.489 177.141 220.219 163.311 218.779 234.041L246.539 228.791L269.039 204.681L291.889 166.881L298.639 170.581L261.149 251.101L250.389 244.791C250.389 244.791 239.449 296.881 216.159 319.771H119.359L118.559 257.941L119.359 154.231L138.769 107.891H138.759Z" fill="#000001"/>
<path d="M434.009 45.8906H119.359V67.7606H434.009V45.8906Z" fill="#A5A5A5"/>
<path d="M260.398 349.859V319.789H255.238V349.859C249.908 351.039 245.898 355.799 245.898 361.489C245.898 368.059 251.248 373.409 257.818 373.409C264.388 373.409 269.738 368.059 269.738 361.489C269.738 355.799 265.738 351.039 260.398 349.859ZM257.818 368.249C254.088 368.249 251.058 365.219 251.058 361.489C251.058 357.759 254.088 354.729 257.818 354.729C261.548 354.729 264.578 357.759 264.578 361.489C264.578 365.219 261.548 368.249 257.818 368.249Z" fill="#A5A5A5"/>
<path opacity="0.1" d="M380.979 272.34H288.119C284.209 272.34 281.039 275.51 281.039 279.42V291.06C281.039 294.97 284.209 298.14 288.119 298.14H380.979C384.889 298.14 388.059 294.97 388.059 291.06V279.42C388.059 275.51 384.889 272.34 380.979 272.34Z" fill="#000001"/>
<path d="M256.098 272.34H219.478C215.568 272.34 212.398 275.51 212.398 279.42V291.06C212.398 294.97 215.568 298.14 219.478 298.14H256.098C260.009 298.14 263.178 294.97 263.178 291.06V279.42C263.178 275.51 260.009 272.34 256.098 272.34Z" fill="#A5A5A5"/>
<path d="M331.349 182.859C335.762 182.859 339.339 179.282 339.339 174.869C339.339 170.456 335.762 166.879 331.349 166.879C326.937 166.879 323.359 170.456 323.359 174.869C323.359 179.282 326.937 182.859 331.349 182.859Z" fill="#24285B"/>
<path opacity="0.58" d="M426.871 400.906C426.871 400.906 407.031 395.576 402.641 377.146C402.641 377.146 433.331 370.806 434.331 402.506L426.871 400.906Z" fill="#A1D9DF"/>
<path opacity="0.73" d="M429.291 398.938C429.291 398.938 415.351 377.098 427.451 356.578C427.451 356.578 450.861 371.308 440.601 398.938H429.281H429.291Z" fill="#A1D9DF"/>
<path d="M432.859 398.936C432.859 398.936 440.079 375.786 462.179 371.316C462.179 371.316 466.389 386.316 447.969 398.936H432.859Z" fill="#A1D9DF"/>
<path d="M418.48 398.477L422.61 425.947H447.92L451.54 398.477H418.48Z" fill="#24285B"/>
<path d="M142.809 166.883C142.809 166.883 181.709 176.403 195.919 251.123L244.569 214.813L254.489 226.553L197.829 285.843C192.229 291.703 182.939 291.933 177.049 286.353L143.149 254.193L142.809 166.883Z" fill="#68E1FD"/>
<path d="M142.809 166.883C142.809 166.883 181.709 176.403 195.919 251.123L244.569 214.813L254.489 226.553L197.829 285.843C192.229 291.703 182.939 291.933 177.049 286.353L143.149 254.193L142.809 166.883Z" fill="url(#paint0_linear_83_2)"/>
<path d="M139.11 120.151C139.11 120.151 140.16 132.281 138.12 140.351C137.29 143.621 133.91 145.631 130.65 144.761C126.6 143.671 121.44 141.031 120.09 134.601L116.45 123.961C116.45 123.961 114.4 117.221 121.27 112.281C128.13 107.341 138.84 112.731 139.11 120.151Z" fill="#F4A28C"/>
<path d="M118.271 126.773L104.391 157.353L122.461 170.763L126.061 141.993L118.271 126.773Z" fill="#F4A28C"/>
<path d="M117.639 156.762C114.579 156.032 111.539 155.182 108.539 154.232C95.0589 149.922 53.6189 139.392 41.7789 168.342C27.5689 203.072 70.1989 308.842 70.1989 308.842L142.819 302.532L160.179 210.972C160.179 210.972 175.149 170.562 117.639 156.782V156.762Z" fill="#3FAAD7"/>
<path d="M139.388 127.832L142.778 132.522C143.618 133.682 142.968 135.322 141.558 135.582L136.898 136.462L139.378 127.832H139.388Z" fill="#F4A28C"/>
<path opacity="0.31" d="M125.96 142.802C125.96 142.802 121.86 140.442 120.42 137.082C120.42 137.082 116.09 144.672 124.93 151.042L125.96 142.802Z" fill="#CE8172"/>
<path opacity="0.08" d="M148.201 170.762C148.201 170.762 114.111 177.212 106.141 153.492L123.991 158.482C123.991 158.482 137.391 161.882 148.191 170.762H148.201Z" fill="#000001"/>
<path d="M172.62 415.812C172.62 415.812 175.82 421.552 181.4 421.112C186.99 420.672 189.32 425.823 184.59 428.043C179.86 430.263 166.04 425.992 166.04 425.992L165.09 417.983L172.62 415.812Z" fill="#68E1FD"/>
<path d="M104.602 408.72C104.602 408.72 103.472 415.19 108.092 418.37C112.712 421.55 111.282 427.02 106.212 425.77C101.142 424.52 93.082 412.5 93.082 412.5L97.392 405.68L104.602 408.73V408.72Z" fill="#68E1FD"/>
<path opacity="0.08" d="M77.9495 170.592C77.9495 170.592 91.9895 190.072 86.7295 232.702C81.4695 275.322 150.93 257.432 150.93 257.432L142.81 302.512L70.1895 308.822L61.2995 284.852L43.2695 222.332L77.9495 170.582V170.592Z" fill="#000001"/>
<path d="M125.961 234.381L134.701 184.141L162.851 201.921L193.801 191.711L185.221 245.561L153.831 255.641L125.961 234.381Z" fill="#A1D9DF"/>
<path d="M46.5302 160.032C30.1002 177.742 10.3402 215.472 25.5802 279.622C27.4302 287.392 35.4002 292.062 43.1002 289.922L141.47 262.572L137.79 247.842L60.9602 257.312C60.9602 257.312 82.2602 213.132 77.9602 170.592C76.3902 155.092 57.1302 148.612 46.5402 160.032H46.5302Z" fill="#68E1FD"/>
<path opacity="0.08" d="M128.479 219.891C128.479 219.891 140.169 237.851 153.059 238.861C165.939 239.871 183.339 234.111 185.219 245.561L153.819 255.641L125.949 234.391L128.469 219.901L128.479 219.891Z" fill="#000001"/>
<path d="M46.5302 160.032C30.1002 177.742 10.3402 215.472 25.5802 279.622C27.4302 287.392 35.4002 292.062 43.1002 289.922L141.47 262.572L137.79 247.842L60.9602 257.312C60.9602 257.312 82.2602 213.132 77.9602 170.592C76.3902 155.092 57.1302 148.612 46.5402 160.032H46.5302Z" fill="url(#paint1_linear_83_2)"/>
<path d="M77.0703 255.32V280.48L141.46 262.57C141.46 262.57 161.46 260.59 165.67 251.12C169.88 241.65 150.94 235.62 137.78 247.84L77.0703 255.32Z" fill="#F4A28C"/>
<path d="M77.0703 255.32V280.47L90.3503 276.57V253.68L77.0703 255.32Z" fill="white"/>
<path d="M162.852 201.92L142.592 179.09L140.512 187.81L162.852 201.92Z" fill="#A1D9DF"/>
<path d="M70.1914 308.832L97.9514 341.692C108.431 354.102 110.501 371.562 103.221 386.072L94.3714 403.702L107.941 410.642L120.371 390.722C130.911 373.832 133.941 353.322 128.741 334.112C127.061 327.902 128.371 321.262 132.301 316.162L142.811 302.512L70.1914 308.822V308.832Z" fill="#24285B"/>
<path d="M162.852 201.921L188.302 184.141V193.521L162.852 201.921Z" fill="#A1D9DF"/>
<path d="M250.379 232.411L291.829 158.801L294.949 160.671L257.689 236.291L250.379 232.411Z" fill="#24285B"/>
<path d="M142.809 302.512L177.239 415.812L161.919 419.002C161.919 419.002 138.449 351.092 115.219 318.472L142.799 302.512H142.809Z" fill="#24285B"/>
<path d="M206.57 243.16L220.66 261.94L254.49 226.54C254.49 226.54 268.51 225.58 271.93 217.95C275.35 210.32 264.56 197.43 244.57 214.79L206.57 243.15V243.16Z" fill="#F4A28C"/>
<path d="M200.922 247.381L214.632 268.261L223.882 258.581L211.202 239.711L200.922 247.381Z" fill="white"/>
<path d="M117.269 133.262C117.269 133.262 121.329 144.862 127.179 146.432C133.029 148.012 141.459 148.762 140.519 138.732C139.929 132.502 132.829 134.762 124.539 136.452C124.539 136.452 120.639 128.672 121.309 123.742C121.309 123.742 126.599 122.752 125.969 118.022C125.969 118.022 137.979 124.682 140.519 118.022C143.059 111.362 142.559 107.562 136.909 105.192C131.259 102.822 115.469 104.402 111.519 111.502C107.569 118.602 117.279 133.252 117.279 133.252L117.269 133.262Z" fill="#24285B"/>
<path d="M118.36 131.542C118.86 129.582 118.28 127.432 116.72 126.162C115.74 125.362 114.44 124.932 112.82 125.682C108.76 127.562 111.66 135.622 117.64 134.402L118.36 131.552V131.542Z" fill="#F4A28C"/>
<defs>
<linearGradient id="paint0_linear_83_2" x1="-2205.93" y1="641.531" x2="-2205.93" y2="802.461" gradientUnits="userSpaceOnUse">
<stop stop-color="#FCC400"/>
<stop offset="0.162" stop-color="#FBC000"/>
<stop offset="0.307" stop-color="#FBB500"/>
<stop offset="0.446" stop-color="#FBA300"/>
<stop offset="0.581" stop-color="#FA8900"/>
<stop offset="0.712" stop-color="#FA6800"/>
<stop offset="0.842" stop-color="#F93F00"/>
<stop offset="0.967" stop-color="#F81000"/>
<stop offset="1" stop-color="#F80300"/>
</linearGradient>
<linearGradient id="paint1_linear_83_2" x1="-2532.14" y1="677.669" x2="-2532.14" y2="855.138" gradientUnits="userSpaceOnUse">
<stop stop-color="#FCC400"/>
<stop offset="0.162" stop-color="#FBC000"/>
<stop offset="0.307" stop-color="#FBB500"/>
<stop offset="0.446" stop-color="#FBA300"/>
<stop offset="0.581" stop-color="#FA8900"/>
<stop offset="0.712" stop-color="#FA6800"/>
<stop offset="0.842" stop-color="#F93F00"/>
<stop offset="0.967" stop-color="#F81000"/>
<stop offset="1" stop-color="#F80300"/>
</linearGradient>
</defs>
</svg>
