<svg width="500" height="500" viewBox="0 0 500 500" fill="none" xmlns="http://www.w3.org/2000/svg">
<g opacity="0.03">
<path d="M252.14 449.81C378.47 449.81 480.88 426.027 480.88 396.69C480.88 367.353 378.47 343.57 252.14 343.57C125.81 343.57 23.3999 367.353 23.3999 396.69C23.3999 426.027 125.81 449.81 252.14 449.81Z" fill="#000001"/>
</g>
<path d="M364.01 380.59H256.57H245.26H137.82L111.59 449.81H245.26H256.57H390.24L364.01 380.59Z" fill="#A1D9DF"/>
<path d="M299.11 392.13H242.33H233.74H147.06L132.27 438.27H233.74H242.33H315.74L299.11 392.13Z" fill="#3FAAD7"/>
<path d="M310.68 392.13L328.69 438.27H373.06L354.13 392.13H310.68Z" fill="#3FAAD7"/>
<path d="M111.59 449.81L121.18 462.68H378.98L390.24 449.81H111.59Z" fill="#A5A5A5"/>
<path d="M50.4199 362.85C50.4199 362.85 24.7199 355.83 19.1299 331.92C19.1299 331.92 58.9499 323.87 60.0799 364.97L50.4199 362.86V362.85Z" fill="url(#paint0_linear_3_169)"/>
<path d="M53.5599 360.31C53.5599 360.31 35.6099 331.93 51.4099 305.39C51.4099 305.39 81.6799 324.62 68.2299 360.37L53.5599 360.31Z" fill="url(#paint1_linear_3_169)"/>
<path d="M58.1899 360.32C58.1899 360.32 67.6799 330.35 96.3499 324.67C96.3499 324.67 101.73 344.13 77.7799 360.4L58.1899 360.32Z" fill="url(#paint2_linear_3_169)"/>
<path d="M39.5598 359.65L44.7598 395.29L77.5698 395.43L82.4098 359.83L39.5598 359.65Z" fill="#24285B"/>
<path d="M221.94 264.28L208.99 346.49H295.3L275.45 264.28H221.94Z" fill="#A5A5A5"/>
<path d="M310.68 332.08H189.3V358.5H310.68V332.08Z" fill="#E6E6E6"/>
<path d="M444.18 37.32H49.3999V293.82H444.18V37.32Z" fill="#E6E6E6"/>
<path d="M428.29 50.63H63.5598V256.08H428.29V50.63Z" fill="url(#paint3_linear_3_169)"/>
<path d="M428.3 50.63H63.5598V77.7H428.3V50.63Z" fill="#24285B"/>
<path d="M79.0799 69.02C82.3715 69.02 85.0399 66.3516 85.0399 63.06C85.0399 59.7684 82.3715 57.1 79.0799 57.1C75.7883 57.1 73.1199 59.7684 73.1199 63.06C73.1199 66.3516 75.7883 69.02 79.0799 69.02Z" fill="white"/>
<path d="M96.8099 69.02C100.101 69.02 102.77 66.3516 102.77 63.06C102.77 59.7684 100.101 57.1 96.8099 57.1C93.5182 57.1 90.8499 59.7684 90.8499 63.06C90.8499 66.3516 93.5182 69.02 96.8099 69.02Z" fill="url(#paint4_linear_3_169)"/>
<path d="M113.53 69.02C116.821 69.02 119.49 66.3516 119.49 63.06C119.49 59.7684 116.821 57.1 113.53 57.1C110.238 57.1 107.57 59.7684 107.57 63.06C107.57 66.3516 110.238 69.02 113.53 69.02Z" fill="url(#paint5_linear_3_169)"/>
<path d="M251.36 281.22C255.485 281.22 258.83 277.876 258.83 273.75C258.83 269.624 255.485 266.28 251.36 266.28C247.234 266.28 243.89 269.624 243.89 273.75C243.89 277.876 247.234 281.22 251.36 281.22Z" fill="#A5A5A5"/>
<path d="M125.97 77.7H63.5598V256.08H125.97V77.7Z" fill="url(#paint6_linear_3_169)"/>
<path d="M428.3 77.7H365.87V256.08H428.3V77.7Z" fill="url(#paint7_linear_3_169)"/>
<path opacity="0.1" d="M242.44 168L311.97 127.59L311.77 199.24L242.24 239.64L242.44 168Z" fill="#000001"/>
<path opacity="0.44" d="M180.09 132L249.62 91.59L311.97 127.59L242.44 168L180.09 132Z" fill="white"/>
<path opacity="0.2" d="M242.44 168L242.24 239.64L179.89 203.64L180.09 132L242.44 168Z" fill="#000001"/>
<path opacity="0.44" d="M110.54 97.33H78.8599V125.82H110.54V97.33Z" fill="white"/>
<path opacity="0.44" d="M110.54 241.33H82.0598V212.85L110.54 241.33Z" fill="white"/>
<path opacity="0.44" d="M102.66 153.47H84.35L75.2 169.33L84.35 185.19H102.66L111.81 169.33L102.66 153.47Z" fill="white"/>
<path opacity="0.44" d="M415.42 111.71H378.74V118.22H415.42V111.71Z" fill="white"/>
<path opacity="0.1" d="M390.43 127.24H378.74V130.49H390.43V127.24Z" fill="#000001"/>
<path opacity="0.1" d="M415.42 127.24H395.75V130.49H415.42V127.24Z" fill="#000001"/>
<path opacity="0.1" d="M400.19 139.51H378.74V142.76H400.19V139.51Z" fill="#000001"/>
<path opacity="0.1" d="M415.42 139.51H407.58V142.76H415.42V139.51Z" fill="#000001"/>
<path opacity="0.1" d="M385.11 151.71H378.82V154.96H385.11V151.71Z" fill="#000001"/>
<path opacity="0.1" d="M415.49 151.71H388.65V154.96H415.49V151.71Z" fill="#000001"/>
<path opacity="0.1" d="M409.36 163.99H378.82V167.24H409.36V163.99Z" fill="#000001"/>
<path opacity="0.44" d="M415.42 185.66H378.74V192.17H415.42V185.66Z" fill="white"/>
<path opacity="0.1" d="M390.43 201.19H378.74V204.44H390.43V201.19Z" fill="#000001"/>
<path opacity="0.1" d="M415.42 201.19H395.75V204.44H415.42V201.19Z" fill="#000001"/>
<path opacity="0.1" d="M400.19 213.46H378.74V216.71H400.19V213.46Z" fill="#000001"/>
<path opacity="0.1" d="M415.42 213.46H407.58V216.71H415.42V213.46Z" fill="#000001"/>
<path opacity="0.1" d="M385.11 225.67H378.82V228.92H385.11V225.67Z" fill="#000001"/>
<path opacity="0.1" d="M415.49 225.67H388.65V228.92H415.49V225.67Z" fill="#000001"/>
<path opacity="0.1" d="M409.36 237.94H378.82V241.19H409.36V237.94Z" fill="#000001"/>
<path opacity="0.44" d="M140.91 103.9L149.34 96.09L148.16 94.81L139.56 102.78V88.5H137.82V105.64H155.85V103.9H140.91Z" fill="white"/>
<defs>
<linearGradient id="paint0_linear_3_169" x1="59.7439" y1="331.244" x2="27.7761" y2="371.744" gradientUnits="userSpaceOnUse">
<stop stop-color="#8E55F1"/>
<stop offset="0.140795" stop-color="#8B48DF"/>
<stop offset="0.274905" stop-color="#E04DD9"/>
<stop offset="0.492309" stop-color="#F496C8"/>
<stop offset="0.633104" stop-color="#FAD2BA"/>
<stop offset="0.856964" stop-color="#FEF7E5"/>
<stop offset="1" stop-color="#FFF5BF"/>
</linearGradient>
<linearGradient id="paint1_linear_3_169" x1="71.4555" y1="305.327" x2="28.1631" y2="327.297" gradientUnits="userSpaceOnUse">
<stop stop-color="#8E55F1"/>
<stop offset="0.140795" stop-color="#8B48DF"/>
<stop offset="0.274905" stop-color="#E04DD9"/>
<stop offset="0.492309" stop-color="#F496C8"/>
<stop offset="0.633104" stop-color="#FAD2BA"/>
<stop offset="0.856964" stop-color="#FEF7E5"/>
<stop offset="1" stop-color="#FFF5BF"/>
</linearGradient>
<linearGradient id="paint2_linear_3_169" x1="96.5496" y1="324.629" x2="61.9426" y2="363.672" gradientUnits="userSpaceOnUse">
<stop stop-color="#8E55F1"/>
<stop offset="0.140795" stop-color="#8B48DF"/>
<stop offset="0.274905" stop-color="#E04DD9"/>
<stop offset="0.492309" stop-color="#F496C8"/>
<stop offset="0.633104" stop-color="#FAD2BA"/>
<stop offset="0.856964" stop-color="#FEF7E5"/>
<stop offset="1" stop-color="#FFF5BF"/>
</linearGradient>
<linearGradient id="paint3_linear_3_169" x1="425.297" y1="50.3946" x2="257.613" y2="360.65" gradientUnits="userSpaceOnUse">
<stop stop-color="#8E55F1"/>
<stop offset="0.140795" stop-color="#8B48DF"/>
<stop offset="0.274905" stop-color="#E04DD9"/>
<stop offset="0.492309" stop-color="#F496C8"/>
<stop offset="0.633104" stop-color="#FAD2BA"/>
<stop offset="0.856964" stop-color="#FEF7E5"/>
<stop offset="1" stop-color="#FFF5BF"/>
</linearGradient>
<linearGradient id="paint4_linear_3_169" x1="102.672" y1="57.0863" x2="91.0525" y2="69.1965" gradientUnits="userSpaceOnUse">
<stop stop-color="#8E55F1"/>
<stop offset="0.140795" stop-color="#8B48DF"/>
<stop offset="0.274905" stop-color="#E04DD9"/>
<stop offset="0.492309" stop-color="#F496C8"/>
<stop offset="0.633104" stop-color="#FAD2BA"/>
<stop offset="0.856964" stop-color="#FEF7E5"/>
<stop offset="1" stop-color="#FFF5BF"/>
</linearGradient>
<linearGradient id="paint5_linear_3_169" x1="-143.119" y1="102.909" x2="-143.119" y2="118.44" gradientUnits="userSpaceOnUse">
<stop stop-color="#FCC400"/>
<stop offset="0.162" stop-color="#FBC000"/>
<stop offset="0.307" stop-color="#FBB500"/>
<stop offset="0.446" stop-color="#FBA300"/>
<stop offset="0.581" stop-color="#FA8900"/>
<stop offset="0.712" stop-color="#FA6800"/>
<stop offset="0.842" stop-color="#F93F00"/>
<stop offset="0.967" stop-color="#F81000"/>
<stop offset="1" stop-color="#F80300"/>
</linearGradient>
<linearGradient id="paint6_linear_3_169" x1="-1248.98" y1="763.216" x2="-1248.98" y2="995.641" gradientUnits="userSpaceOnUse">
<stop stop-color="#FCC400"/>
<stop offset="0.162" stop-color="#FBC000"/>
<stop offset="0.307" stop-color="#FBB500"/>
<stop offset="0.446" stop-color="#FBA300"/>
<stop offset="0.581" stop-color="#FA8900"/>
<stop offset="0.712" stop-color="#FA6800"/>
<stop offset="0.842" stop-color="#F93F00"/>
<stop offset="0.967" stop-color="#F81000"/>
<stop offset="1" stop-color="#F80300"/>
</linearGradient>
<linearGradient id="paint7_linear_3_169" x1="-947.091" y1="763.216" x2="-947.091" y2="995.641" gradientUnits="userSpaceOnUse">
<stop stop-color="#FCC400"/>
<stop offset="0.162" stop-color="#FBC000"/>
<stop offset="0.307" stop-color="#FBB500"/>
<stop offset="0.446" stop-color="#FBA300"/>
<stop offset="0.581" stop-color="#FA8900"/>
<stop offset="0.712" stop-color="#FA6800"/>
<stop offset="0.842" stop-color="#F93F00"/>
<stop offset="0.967" stop-color="#F81000"/>
<stop offset="1" stop-color="#F80300"/>
</linearGradient>
</defs>
</svg>
