<svg width="500" height="500" viewBox="0 0 500 500" fill="none" xmlns="http://www.w3.org/2000/svg">
<path opacity="0.18" d="M349.129 122.83C358.499 140.54 368.029 159.86 375.279 178.38C382.649 197.21 398.519 213.14 413.129 226.32C429.259 240.87 446.799 253.81 461.989 269.38C477.179 284.95 490.139 303.77 494.359 325.24C499.139 349.55 492.199 375.01 480.319 396.66C476.619 403.79 471.859 410.28 466.209 415.93C460.339 421.51 453.219 425.57 446.059 429.23C426.889 438.99 406.719 446.57 385.429 449.49C363.269 452.53 340.729 451.18 318.609 448.39C288.859 444.65 259.389 438.31 229.449 436.49C207.869 435.17 186.219 436.25 164.669 437.91C141.609 439.67 118.099 442.05 95.6086 436.59C66.0986 429.44 40.5186 408.71 24.8886 382.16C11.2586 359.07 -4.0514 315.16 7.8686 289.27C20.5686 261.7 55.0086 242.98 77.5686 224.9C86.6586 217.59 95.7586 209.53 100.949 198.95C106.739 187.15 107.169 173.49 109.579 160.6C117.369 118.61 148.549 81.9798 188.339 68.1998C244.199 48.8098 311.669 61.6798 344.589 114.94C346.189 117.48 347.689 120.15 349.119 122.85L349.129 122.83Z" fill="#3FAAD7"/>
<path opacity="0.18" d="M156.38 179.039H112.25V239.219H156.38V179.039Z" fill="#68E1FD"/>
<path d="M145.63 188.789H101.5V248.969H145.63V188.789Z" fill="white"/>
<path d="M410.207 391.448H398.857V390.458H409.207V297.828H369.287V160.908H332.637V159.918H370.267V296.848H410.207V391.448Z" fill="#68E1FD"/>
<path d="M182.867 233.128H181.867V200.388H207.417V170.828H208.407V201.388H182.867V233.128Z" fill="#68E1FD"/>
<path d="M306.738 370.898H175.328C167.093 370.898 160.418 377.574 160.418 385.808V411.998C160.418 420.233 167.093 426.908 175.328 426.908H306.738C314.973 426.908 321.648 420.233 321.648 411.998V385.808C321.648 377.574 314.973 370.898 306.738 370.898Z" fill="url(#paint0_linear_85_117)" fill-opacity="0.3"/>
<path d="M306.738 304.277H175.328C167.093 304.277 160.418 310.953 160.418 319.187V345.377C160.418 353.612 167.093 360.287 175.328 360.287H306.738C314.973 360.287 321.648 353.612 321.648 345.377V319.187C321.648 310.953 314.973 304.277 306.738 304.277Z" fill="#68E1FD"/>
<path d="M306.738 304.277H175.328C167.093 304.277 160.418 310.953 160.418 319.187V345.377C160.418 353.612 167.093 360.287 175.328 360.287H306.738C314.973 360.287 321.648 353.612 321.648 345.377V319.187C321.648 310.953 314.973 304.277 306.738 304.277Z" fill="url(#paint1_linear_85_117)" fill-opacity="0.3"/>
<path d="M322.629 370.898H191.219C182.984 370.898 176.309 377.574 176.309 385.808V411.998C176.309 420.233 182.984 426.908 191.219 426.908H322.629C330.863 426.908 337.539 420.233 337.539 411.998V385.808C337.539 377.574 330.863 370.898 322.629 370.898Z" fill="url(#paint2_linear_85_117)"/>
<path d="M337.54 319.199V345.369C337.56 353.599 330.91 360.289 322.68 360.309C322.65 360.309 322.62 360.309 322.59 360.309H191.23C182.99 360.309 176.32 353.629 176.32 345.399C176.32 345.399 176.32 345.379 176.32 345.369V319.199C176.32 310.959 183 304.289 191.23 304.289H322.59C330.83 304.269 337.52 310.939 337.53 319.169C337.53 319.169 337.53 319.189 337.53 319.199H337.54Z" fill="url(#paint3_linear_85_117)"/>
<path d="M337.537 323.59V345.37C337.537 350.01 335.377 354.38 331.707 357.21C331.597 352.58 331.337 339.68 331.707 333.96C332.027 329.81 334.167 326.02 337.537 323.59Z" fill="url(#paint4_linear_85_117)"/>
<path d="M306.738 233.129H175.328C167.093 233.129 160.418 239.804 160.418 248.039V274.229C160.418 282.463 167.093 289.139 175.328 289.139H306.738C314.973 289.139 321.648 282.463 321.648 274.229V248.039C321.648 239.804 314.973 233.129 306.738 233.129Z" fill="#68E1FD"/>
<path d="M306.738 233.129H175.328C167.093 233.129 160.418 239.804 160.418 248.039V274.229C160.418 282.463 167.093 289.139 175.328 289.139H306.738C314.973 289.139 321.648 282.463 321.648 274.229V248.039C321.648 239.804 314.973 233.129 306.738 233.129Z" fill="url(#paint5_linear_85_117)" fill-opacity="0.3"/>
<path d="M322.629 233.129H191.219C182.984 233.129 176.309 239.804 176.309 248.039V274.229C176.309 282.463 182.984 289.139 191.219 289.139H322.629C330.863 289.139 337.539 282.463 337.539 274.229V248.039C337.539 239.804 330.863 233.129 322.629 233.129Z" fill="url(#paint6_linear_85_117)"/>
<path d="M332.608 152.089C332.608 162.439 324.218 170.839 313.858 170.839C313.858 170.839 313.858 170.839 313.848 170.839H185.328C174.968 171.129 166.348 162.959 166.058 152.609C165.768 142.249 173.938 133.629 184.288 133.339C184.638 133.339 184.978 133.339 185.328 133.339H189.618C184.098 113.689 195.558 93.2789 215.208 87.7589C218.458 86.8489 221.828 86.3789 225.208 86.3789H236.148C249.948 86.3689 262.598 94.0589 268.948 106.309C272.068 104.709 275.528 103.869 279.038 103.879H281.898C294.178 103.879 304.128 113.829 304.128 126.109V127.209C304.128 129.279 303.838 131.339 303.268 133.329H313.908C324.238 133.379 332.588 141.759 332.598 152.089H332.608Z" fill="white"/>
<path d="M380.438 357.229C378.608 357.229 377.118 355.769 377.078 353.939V332.159C377.078 324.259 370.678 317.859 362.778 317.859C354.878 317.859 348.478 324.259 348.478 332.159V353.939C348.478 355.799 346.978 357.299 345.118 357.299C343.258 357.299 341.758 355.799 341.758 353.939V332.159C341.758 320.549 351.158 311.129 362.768 311.129C374.378 311.129 383.798 320.529 383.798 332.139V353.939C383.758 355.769 382.268 357.229 380.438 357.229Z" fill="white"/>
<path d="M383.798 332.161V353.941C383.798 355.121 383.158 356.211 382.138 356.801C381.628 357.111 381.038 357.271 380.438 357.271C378.598 357.271 377.098 355.781 377.078 353.941V332.161C377.078 324.921 371.668 318.821 364.478 317.961C363.908 317.901 363.348 317.861 362.778 317.861C354.878 317.861 348.478 324.261 348.478 332.161V353.941C348.468 355.121 347.838 356.201 346.818 356.801C346.298 357.111 345.708 357.271 345.098 357.271C343.248 357.271 341.748 355.761 341.738 353.911V332.161C341.758 320.551 351.168 311.151 362.768 311.141C363.338 311.141 363.908 311.171 364.468 311.231C375.378 312.121 383.778 321.221 383.788 332.161H383.798Z" fill="url(#paint7_linear_85_117)"/>
<path d="M383.797 332.16V353.94C384.337 354.85 384.027 356.03 383.117 356.56C382.207 357.1 381.027 356.79 380.497 355.88C380.147 355.28 380.147 354.54 380.497 353.94V332.16C380.497 324.26 374.097 317.86 366.197 317.86C365.627 317.86 365.047 317.9 364.477 317.96C363.907 317.9 363.347 317.86 362.777 317.86C354.877 317.86 348.477 324.26 348.477 332.16V353.94C349.007 354.86 348.697 356.03 347.777 356.56C346.857 357.09 345.687 356.78 345.157 355.86C344.817 355.27 344.817 354.54 345.157 353.94V332.16C344.237 321.5 352.137 312.11 362.797 311.19C373.457 310.27 382.847 318.17 383.767 328.83C383.867 329.94 383.867 331.05 383.767 332.16H383.797Z" fill="url(#paint8_linear_85_117)"/>
<path d="M385.918 353.859H337.598C330.457 353.859 324.668 359.648 324.668 366.789V415.109C324.668 422.25 330.457 428.039 337.598 428.039H385.918C393.059 428.039 398.848 422.25 398.848 415.109V366.789C398.848 359.648 393.059 353.859 385.918 353.859Z" fill="#68E1FD"/>
<path d="M385.928 353.867H337.578C330.448 353.867 324.668 359.647 324.668 366.777V415.127C324.668 422.257 330.448 428.037 337.578 428.037H385.928C393.058 428.037 398.838 422.257 398.838 415.127V366.777C398.838 359.647 393.058 353.867 385.928 353.867Z" fill="url(#paint9_linear_85_117)"/>
<path d="M385.939 353.867H350.449C343.319 353.867 337.539 359.647 337.539 366.777V415.127C337.539 422.257 343.319 428.037 350.449 428.037H385.939C393.069 428.037 398.849 422.257 398.849 415.127V366.777C398.849 359.647 393.069 353.867 385.939 353.867Z" fill="url(#paint10_linear_85_117)"/>
<path d="M368.129 388.528C365.649 387.738 364.269 385.088 365.059 382.598C365.849 380.108 368.499 378.738 370.989 379.528C373.469 380.318 374.849 382.968 374.059 385.458C373.599 386.918 372.449 388.058 370.989 388.528L374.659 400.198H364.809L368.129 388.528Z" fill="url(#paint11_linear_85_117)"/>
<path d="M201.58 268.07C205.076 268.07 207.91 265.236 207.91 261.74C207.91 258.244 205.076 255.41 201.58 255.41C198.084 255.41 195.25 258.244 195.25 261.74C195.25 265.236 198.084 268.07 201.58 268.07Z" fill="white"/>
<path d="M220.619 268.07C224.115 268.07 226.949 265.236 226.949 261.74C226.949 258.244 224.115 255.41 220.619 255.41C217.123 255.41 214.289 258.244 214.289 261.74C214.289 265.236 217.123 268.07 220.619 268.07Z" fill="white"/>
<path d="M239.678 268.07C243.174 268.07 246.008 265.236 246.008 261.74C246.008 258.244 243.174 255.41 239.678 255.41C236.182 255.41 233.348 258.244 233.348 261.74C233.348 265.236 236.182 268.07 239.678 268.07Z" fill="white"/>
<path d="M201.58 338.617C205.076 338.617 207.91 335.783 207.91 332.287C207.91 328.791 205.076 325.957 201.58 325.957C198.084 325.957 195.25 328.791 195.25 332.287C195.25 335.783 198.084 338.617 201.58 338.617Z" fill="white"/>
<path d="M220.619 338.617C224.115 338.617 226.949 335.783 226.949 332.287C226.949 328.791 224.115 325.957 220.619 325.957C217.123 325.957 214.289 328.791 214.289 332.287C214.289 335.783 217.123 338.617 220.619 338.617Z" fill="white"/>
<path d="M239.678 338.617C243.174 338.617 246.008 335.783 246.008 332.287C246.008 328.791 243.174 325.957 239.678 325.957C236.182 325.957 233.348 328.791 233.348 332.287C233.348 335.783 236.182 338.617 239.678 338.617Z" fill="white"/>
<path d="M201.58 409.168C205.076 409.168 207.91 406.334 207.91 402.838C207.91 399.342 205.076 396.508 201.58 396.508C198.084 396.508 195.25 399.342 195.25 402.838C195.25 406.334 198.084 409.168 201.58 409.168Z" fill="white"/>
<path d="M220.619 409.168C224.115 409.168 226.949 406.334 226.949 402.838C226.949 399.342 224.115 396.508 220.619 396.508C217.123 396.508 214.289 399.342 214.289 402.838C214.289 406.334 217.123 409.168 220.619 409.168Z" fill="white"/>
<path d="M239.678 409.168C243.174 409.168 246.008 406.334 246.008 402.838C246.008 399.342 243.174 396.508 239.678 396.508C236.182 396.508 233.348 399.342 233.348 402.838C233.348 406.334 236.182 409.168 239.678 409.168Z" fill="white"/>
<path d="M405.34 206.918H345.16V267.098H405.34V206.918Z" fill="url(#paint12_linear_85_117)"/>
<path d="M80.3086 357.32C80.6386 360.39 81.6986 363.33 83.4086 365.9C90.2686 378.03 97.9686 389.96 108.589 398.96C124.219 412.17 144.669 417.88 164.429 423.27C162.669 422.41 160.539 413.26 159.749 411.3C158.219 407.38 156.789 403.42 155.329 399.47C152.999 393.25 148.179 388.25 143.379 383.66C132.629 373.27 119.559 365.59 105.259 361.24C97.1686 358.76 88.7686 357.45 80.3086 357.32Z" fill="#68E1FD"/>
<path d="M80.3086 357.32C80.6386 360.39 81.6986 363.33 83.4086 365.9C90.2686 378.03 97.9686 389.96 108.589 398.96C124.219 412.17 144.669 417.88 164.429 423.27C162.669 422.41 160.539 413.26 159.749 411.3C158.219 407.38 156.789 403.42 155.329 399.47C152.999 393.25 148.179 388.25 143.379 383.66C132.629 373.27 119.559 365.59 105.259 361.24C97.1686 358.76 88.7686 357.45 80.3086 357.32Z" fill="url(#paint13_linear_85_117)" fill-opacity="0.5"/>
<path d="M157.619 364.107C155.999 352.827 154.349 341.397 149.809 330.947C145.279 320.497 137.409 310.927 126.729 307.027C126.419 323.177 126.109 339.317 125.799 355.457C125.609 364.777 125.459 374.287 128.129 383.227C132.829 398.957 149.119 417.277 164.809 422.447C167.139 414.927 163.239 403.527 162.119 395.707L157.619 364.107Z" fill="url(#paint14_linear_85_117)"/>
<path d="M321.64 329.73H272.07V334.83H321.64V329.73Z" fill="white"/>
<path d="M321.64 400.277H272.07V405.377H321.64V400.277Z" fill="white"/>
<path d="M359.777 226.947L374.937 219.027L389.477 226.907C389.477 226.907 386.777 246.367 375.297 251.947C375.267 251.947 361.027 246.497 359.787 226.957L359.777 226.947Z" fill="white"/>
<path d="M294.149 271.44C292.939 271.98 292.259 273.28 292.509 274.59C292.649 275.86 293.249 277.06 293.449 278.32C294.039 281.99 290.979 285.56 287.389 286.48C282.689 287.68 277.869 285.31 273.689 282.83C273.169 282.56 272.689 282.22 272.259 281.81C271.589 280.92 271.189 279.87 271.089 278.76C270.639 276.69 270.389 274.58 270.329 272.45C270.329 267.6 272.459 262.97 272.569 258.15C272.639 251.39 268.919 245.15 262.929 242.01C260.489 240.94 257.989 240.03 255.419 239.31C253.169 238.53 250.989 237.57 248.899 236.45C247.579 235.76 246.139 234.79 246.039 233.32C248.249 232.33 250.669 231.92 253.069 232.12H294.539C295.059 232.07 295.579 232.16 296.059 232.39C296.529 232.75 296.879 233.25 297.059 233.82C299.829 240.47 299.509 247.83 300.079 254.88C300.299 258.32 300.939 261.73 301.979 265.02C302.569 266.81 304.479 270.22 303.279 272.1C301.019 275.59 296.689 270.74 294.139 271.43L294.149 271.44Z" fill="url(#paint15_linear_85_117)"/>
<path d="M239.529 152.23C240.209 151.12 240.729 149.93 241.099 148.68C242.489 144.91 244.099 141.22 245.919 137.64C246.659 135.91 247.759 134.36 249.149 133.09C251.739 130.97 255.379 130.92 258.729 130.96C260.959 130.96 263.509 131.17 264.849 132.95C265.569 134.13 265.929 135.49 265.889 136.87C266.609 148.35 265.339 159.87 262.129 170.92C255.979 171.23 249.819 171.51 243.659 171.74C239.469 171.91 231.109 173.91 227.669 170.91C218.899 163.27 236.619 156.38 239.519 152.24L239.529 152.23Z" fill="url(#paint16_linear_85_117)"/>
<path d="M298.288 257.612C298.008 259.342 298.108 261.112 298.578 262.802C299.238 264.402 300.368 265.762 301.828 266.702C304.918 268.862 308.728 269.742 312.448 269.162C312.948 269.132 313.428 268.932 313.788 268.572C314.018 268.272 314.138 267.902 314.148 267.532C314.138 265.522 313.368 263.582 311.988 262.112C310.618 260.652 309.498 258.972 308.688 257.152C307.488 253.602 309.858 244.902 303.398 245.502C298.048 246.002 298.698 253.852 298.298 257.612H298.288Z" fill="#FFB4A3"/>
<path d="M274.831 209.321C279.741 209.501 284.641 209.971 289.501 210.751C298.081 212.071 303.571 215.711 305.691 224.321C307.631 232.181 309.581 240.151 309.551 248.261C309.751 250.171 309.201 252.091 308.021 253.611C306.031 255.611 302.431 254.871 300.471 252.871C298.511 250.871 297.711 247.991 296.911 245.291C295.571 240.701 293.861 229.821 289.001 228.601C280.761 226.541 272.301 231.731 264.231 228.601C261.351 227.591 258.611 226.231 256.071 224.541C253.531 222.831 251.561 220.391 250.441 217.531C249.931 216.011 249.651 214.431 249.601 212.831C249.501 211.511 249.531 210.191 249.691 208.881C249.951 207.361 250.201 207.541 251.731 207.551C254.321 207.551 256.891 207.751 259.471 207.991C264.591 208.421 269.711 209.181 274.841 209.321H274.831Z" fill="#231F20"/>
<path d="M296.689 263.5C296.689 263.5 295.519 265.57 296.449 267C297.379 268.43 307.749 276.91 316.069 272.26C324.389 267.61 306.599 264.54 306.599 264.54L296.689 263.5Z" fill="#68E1FD"/>
<path d="M297.809 258.462C298.569 258.202 299.399 258.542 299.769 259.252C301.039 261.152 303.199 262.272 305.489 262.212C308.039 261.942 309.409 259.222 310.639 259.352C311.869 259.482 317.699 265.942 317.789 268.392C317.879 270.842 314.269 272.162 310.529 271.922C306.789 271.682 298.729 268.002 297.389 265.842C296.309 263.462 296.469 260.702 297.819 258.462H297.809Z" fill="white"/>
<path d="M280.179 266.451C279.619 268.111 279.419 269.881 279.609 271.631C279.999 273.321 280.889 274.841 282.169 276.011C284.859 278.661 288.479 280.151 292.249 280.191C292.749 280.251 293.259 280.121 293.679 279.831C293.949 279.571 294.139 279.231 294.209 278.861C294.529 276.861 294.079 274.821 292.969 273.141C291.859 271.481 291.029 269.641 290.519 267.711C289.909 264.021 293.679 255.811 287.199 255.341C281.779 254.971 281.139 262.851 280.179 266.461V266.451Z" fill="#FFB4A3"/>
<path d="M264.858 214.972C269.698 215.922 274.468 217.172 279.158 218.702C287.348 221.402 292.208 225.852 292.898 234.742C293.508 242.822 294.128 251.002 292.788 259.052C292.668 260.972 291.818 262.772 290.398 264.072C288.108 265.712 284.678 264.402 283.058 262.102C281.438 259.802 281.138 256.852 280.798 254.052C280.208 249.302 280.328 238.322 275.718 236.292C270.858 234.172 265.438 234.862 260.278 234.572C257.588 234.432 254.758 233.902 252.128 233.842C243.338 233.652 241.508 227.112 241.208 226.082C240.118 222.792 239.568 219.342 239.578 215.872C239.688 214.172 239.958 212.492 240.398 210.852C240.728 209.322 240.738 209.152 242.398 209.422C244.958 209.852 247.478 210.462 249.958 211.122C254.908 212.382 259.808 213.982 264.858 214.972Z" fill="#231F20"/>
<path d="M277.569 272.002C277.569 272.002 276.139 273.862 276.749 275.422C277.359 276.982 286.259 287.042 295.239 283.812C304.219 280.582 287.179 274.642 287.179 274.642L277.569 271.992V272.002Z" fill="#68E1FD"/>
<path d="M279.49 267.209C280.28 267.079 281.06 267.549 281.31 268.309C282.26 270.409 284.22 271.869 286.5 272.169C289.06 272.309 290.79 269.849 292.05 270.199C293.31 270.549 297.94 277.859 297.58 280.209C297.22 282.559 293.49 283.359 289.84 282.499C286.19 281.639 278.84 276.709 277.87 274.359C277.21 271.859 277.82 269.189 279.49 267.209Z" fill="white"/>
<path d="M296.357 205.262L274.188 213.362L289.908 223.092L312.327 210.442L296.357 205.262Z" fill="#68E1FD"/>
<path d="M296.357 205.262L274.188 213.362L289.908 223.092L312.327 210.442L296.357 205.262Z" fill="url(#paint17_linear_85_117)"/>
<path d="M273.18 215.6L290.41 227.54L319.21 215.6L330.26 193.34L296.96 203.35L289.91 223.09L274.19 213.36L273.18 215.6Z" fill="#68E1FD"/>
<path d="M276.839 191.22C275.119 192.25 273.319 192.65 271.859 191.61L271.499 191.31C269.179 189.04 268.809 184.16 268.909 180.6C268.949 179.1 269.069 177.61 269.279 176.12L278.029 165.48L282.549 185.83C280.939 187.92 279.009 189.74 276.829 191.22H276.839Z" fill="url(#paint18_linear_85_117)"/>
<path d="M276.917 186.13C276.757 187.1 276.747 188.13 276.607 189.13C275.817 194.59 273.747 200.03 274.537 205.62C274.907 206.84 274.877 208.14 274.447 209.34C273.837 210.26 272.907 210.92 271.847 211.2C266.647 213.13 260.967 213.12 255.417 213.07C251.257 213.07 245.277 213.4 241.837 210.64C240.557 209.36 239.837 207.63 239.817 205.82C239.207 199.97 239.207 194.07 239.817 188.22L239.987 185.93C240.467 180.66 241.127 175.42 241.987 170.2C242.627 166.43 243.527 162.36 246.437 159.86C250.297 156.53 257.047 154.96 262.027 154.77C263.647 154.67 265.267 154.81 266.847 155.18C269.057 155.88 271.127 156.94 272.977 158.33C275.207 159.87 277.197 161.19 278.027 163.75C278.927 166.69 279.407 169.73 279.457 172.8C279.497 175.7 279.127 178.58 278.367 181.38C278.007 182.74 277.447 184.07 277.107 185.43C277.007 185.63 276.967 185.87 276.917 186.13Z" fill="url(#paint19_linear_85_117)"/>
<path opacity="0.1" d="M250.077 213.811C248.417 214.041 244.987 212.051 243.797 211.651C243.097 211.421 242.477 210.961 241.797 210.681C238.307 209.251 239.377 199.031 239.427 196.241C239.567 188.881 239.227 181.181 240.217 173.921C240.467 171.101 241.207 168.351 242.407 165.781C243.627 163.191 245.937 161.281 248.717 160.561C249.247 160.391 249.817 160.391 250.347 160.561C252.467 161.451 252.387 165.151 252.507 166.971C252.547 168.801 252.927 170.601 253.637 172.291C254.467 174.081 255.797 174.741 257.087 176.061C260.107 178.901 262.507 182.331 264.137 186.141C264.877 188.141 265.267 190.261 265.927 192.301C267.627 196.781 270.037 200.961 273.077 204.671C274.107 206.101 275.207 207.821 274.607 209.451C274.067 210.581 273.077 211.431 271.877 211.781C270.407 212.381 268.807 212.601 267.227 212.421C263.497 211.931 260.677 208.921 257.347 207.191C256.187 206.591 253.977 205.571 252.657 206.151C251.337 206.731 250.887 208.481 250.687 209.671C250.577 210.431 251.197 212.891 250.847 213.371C250.677 213.621 250.407 213.781 250.107 213.811H250.077Z" fill="#020202"/>
<path d="M270.639 151.412C269.969 151.952 269.119 152.232 268.249 152.202C267.519 152.182 266.799 152.082 266.089 151.912H265.699C265.599 151.872 265.489 151.872 265.399 151.912C265.299 151.982 265.229 152.092 265.209 152.212C264.849 153.622 264.609 155.052 264.499 156.502V157.292C264.509 157.562 264.449 157.842 264.309 158.082C264.059 158.342 263.719 158.502 263.349 158.522C262.689 158.632 262.019 158.632 261.359 158.522C259.969 158.182 258.679 157.502 257.609 156.532C258.069 154.102 258.299 151.632 258.299 149.152C258.299 145.952 257.959 142.702 258.759 139.602C259.199 136.752 261.869 134.802 264.719 135.242C264.949 135.282 265.169 135.332 265.399 135.392C267.659 135.682 269.799 136.612 271.549 138.082C272.059 138.632 272.309 139.382 272.219 140.122C272.219 141.392 272.289 142.672 272.219 143.942C272.149 145.212 272.029 146.802 271.849 148.232C271.829 149.402 271.399 150.522 270.629 151.402L270.639 151.412Z" fill="#FFB4A3"/>
<path d="M269.979 138.6C268.349 138.6 266.619 138.1 265.019 138.5C262.749 139.27 261.399 141.6 261.859 143.95C261.199 144.08 261.259 142.95 260.859 142.43C260.459 141.92 259.289 142.43 259.099 143.12C259.029 143.9 259.149 144.68 259.459 145.39C259.829 146.82 259.699 148.33 259.099 149.68C258.959 149.99 258.659 150.35 258.339 150.22C258.019 150.09 257.849 149.48 257.699 149.19C257.429 148.79 257.139 148.4 256.829 148.03C256.189 147.27 255.399 146.6 254.789 145.83C253.459 144.59 252.769 142.82 252.919 141.01C253.059 140.3 253.409 139.64 253.909 139.11C254.329 138.64 254.839 138.27 255.409 138.02C255.639 137.91 255.909 137.79 255.999 137.56C256.029 137.42 256.029 137.27 255.999 137.13C255.939 135.22 256.999 133.44 258.719 132.6C260.409 131.8 262.269 131.41 264.139 131.46H267.789C268.779 131.55 269.789 131.46 270.749 131.2C270.609 130.52 270.379 129.86 270.079 129.23C270.879 129.6 271.629 130.08 272.299 130.66C272.319 130.24 272.269 129.82 272.159 129.42C273.449 129.95 274.569 130.83 275.389 131.95C276.199 133.52 275.959 135.42 274.799 136.74C273.669 137.9 272.129 138.56 270.509 138.57L270.009 138.6H269.979Z" fill="#C14834"/>
<path d="M266.09 151.92H265.7C265.6 151.88 265.49 151.88 265.4 151.92C265.3 151.99 265.23 152.1 265.21 152.22C264.85 153.63 264.61 155.06 264.5 156.51C262.02 155.29 260.74 152.49 261.44 149.82C262.9 150.7 264.45 151.42 266.06 151.98L266.09 151.92Z" fill="#E0A194"/>
<path d="M303.298 198.759C302.338 198.359 301.528 197.459 300.438 197.499C299.348 197.539 298.478 198.819 297.578 199.639C296.598 200.519 295.318 200.979 294.008 200.939C293.588 200.919 293.178 200.859 292.778 200.749C291.078 200.249 289.598 199.199 288.578 197.759C288.578 197.759 291.238 194.769 291.578 194.569C292.748 193.899 294.338 193.959 295.598 193.279C296.868 192.469 298.188 191.739 299.548 191.079C302.318 189.939 305.458 190.179 308.028 191.719C308.338 191.909 308.688 192.249 308.518 192.589C308.448 192.719 308.328 192.819 308.188 192.879C306.718 193.459 305.118 193.639 303.558 193.379C304.478 193.829 305.328 194.389 306.108 195.069C306.448 195.369 306.768 195.939 306.398 196.209C306.198 196.299 305.968 196.299 305.768 196.209L302.308 195.369C303.208 196.059 303.948 196.929 304.498 197.919C304.598 198.079 304.648 198.269 304.638 198.459C304.468 198.899 303.778 198.949 303.318 198.749L303.298 198.759Z" fill="#FFB4A3"/>
<path d="M303.299 198.762C302.339 198.362 301.529 197.462 300.439 197.502C299.349 197.542 298.479 198.822 297.579 199.642C296.599 200.522 295.319 200.982 294.009 200.942C293.679 200.792 293.359 200.602 293.069 200.382C292.849 200.242 292.679 200.032 292.599 199.782C292.549 199.312 292.849 198.882 293.299 198.752C293.769 198.642 294.249 198.572 294.729 198.542C295.489 198.402 296.169 197.982 296.629 197.372C297.019 196.862 297.259 196.202 297.819 195.942C298.189 195.772 298.589 195.682 298.989 195.682L300.559 195.582C300.799 195.582 301.039 195.542 301.259 195.442C301.479 195.332 301.609 195.102 301.589 194.852C301.589 194.582 301.259 194.442 300.999 194.342C300.489 194.152 298.759 194.052 299.869 193.442C300.679 193.102 301.539 192.892 302.419 192.842C304.169 192.672 305.939 192.672 307.699 192.842C307.889 192.862 308.069 192.892 308.259 192.942C306.789 193.522 305.189 193.702 303.629 193.442C304.549 193.892 305.399 194.452 306.179 195.132C306.519 195.432 306.839 196.002 306.469 196.272C306.269 196.362 306.039 196.362 305.839 196.272L302.379 195.432C303.279 196.122 304.019 196.992 304.569 197.982C304.669 198.142 304.719 198.332 304.709 198.522C304.469 198.922 303.779 198.962 303.319 198.762H303.299Z" fill="#E0A194"/>
<path d="M288.741 198.789C285.211 198.749 281.711 198.079 278.401 196.829C276.051 195.909 273.971 194.409 272.371 192.469C272.161 192.219 272.001 191.929 271.901 191.609C271.721 191.079 271.721 190.499 271.901 189.969C272.341 188.399 273.261 187.009 274.531 185.979C277.951 183.429 282.591 185.839 282.591 185.839C282.591 185.839 291.301 192.619 291.541 193.959C291.681 194.689 290.841 196.059 290.021 197.149C289.201 198.239 288.731 198.789 288.731 198.789H288.741Z" fill="url(#paint20_linear_85_117)"/>
<path d="M247.671 160.516L247.661 160.518C243.391 161.358 240.611 165.501 241.451 169.771L245.574 190.729C246.414 194.999 250.557 197.78 254.827 196.94L254.837 196.938C259.107 196.098 261.888 191.955 261.047 187.685L256.924 166.727C256.084 162.457 251.941 159.676 247.671 160.516Z" fill="url(#paint21_linear_85_117)"/>
<path opacity="0.1" d="M288.74 198.791C285.21 198.751 281.71 198.081 278.4 196.831C277.99 196.671 275.85 195.401 275.54 195.531C275.41 195.631 275.32 195.771 275.28 195.931L274.12 199.231C273.42 198.771 272.98 198.001 272.95 197.161C272.86 196.331 272.95 195.501 272.86 194.691C272.59 193.431 272.16 192.201 271.59 191.041C270.03 187.061 270.32 182.631 270.62 178.371L273.79 186.681C274.05 187.471 274.42 188.231 274.88 188.921C275.3 189.451 275.78 189.931 276.31 190.351C278.57 192.371 281.17 193.971 283.99 195.081C284.48 195.281 289.82 197.551 290.11 197.141C289.37 198.081 288.74 198.781 288.74 198.781V198.791Z" fill="#020202"/>
<path d="M290.328 216.25C289.468 215.49 288.898 214.26 287.798 213.98C286.698 213.69 285.568 214.75 284.498 215.41C283.268 216.03 281.828 216.07 280.568 215.54C280.148 215.38 279.758 215.18 279.378 214.94C277.768 213.8 276.538 212.2 275.848 210.35C275.848 210.35 279.118 208.01 279.508 207.9C280.828 207.57 282.368 208.14 283.798 207.9C285.238 207.45 286.708 207.09 288.188 206.81C291.348 206.57 294.438 207.86 296.478 210.28C296.748 210.59 297.008 211.08 296.778 211.38C296.678 211.49 296.538 211.57 296.388 211.58C294.758 211.71 293.118 211.37 291.668 210.61C292.498 211.4 293.218 212.29 293.828 213.26C294.118 213.69 294.298 214.4 293.828 214.58C293.628 214.58 293.398 214.58 293.198 214.39L289.938 212.35C290.688 213.39 291.238 214.57 291.568 215.81C291.628 216.01 291.628 216.22 291.568 216.42C291.428 216.79 290.728 216.68 290.328 216.25Z" fill="#FFB4A3"/>
<path d="M290.331 216.252C289.471 215.492 288.901 214.262 287.801 213.982C286.701 213.692 285.571 214.752 284.501 215.412C283.271 216.032 281.831 216.072 280.571 215.542C280.271 215.272 280.001 214.972 279.751 214.642C279.551 214.422 279.421 214.142 279.391 213.842C279.421 213.352 279.831 212.962 280.321 212.952C280.801 212.982 281.281 213.052 281.751 213.162C282.521 213.282 283.311 213.052 283.891 212.532C284.391 212.102 284.781 211.472 285.321 211.302C285.731 211.232 286.141 211.272 286.541 211.402L288.141 211.812C288.381 211.862 288.621 211.862 288.851 211.812C289.111 211.762 289.301 211.542 289.311 211.282C289.271 210.982 289.101 210.712 288.841 210.552C288.371 210.182 286.671 209.492 287.911 209.212C288.791 209.102 289.691 209.152 290.561 209.382C292.361 209.792 294.121 210.392 295.811 211.152C296.001 211.232 296.181 211.332 296.351 211.442C294.721 211.572 293.081 211.232 291.631 210.472C292.461 211.262 293.181 212.152 293.791 213.122C294.081 213.552 294.261 214.262 293.791 214.442C293.591 214.442 293.361 214.442 293.161 214.252L289.901 212.212C290.651 213.252 291.201 214.432 291.531 215.672C291.591 215.872 291.591 216.082 291.531 216.282C291.431 216.792 290.731 216.682 290.331 216.252Z" fill="#E0A194"/>
<path d="M266.478 192.37L281.258 205.51L276.368 214.39C276.368 214.39 248.238 201.22 246.808 194.86C245.378 188.5 252.818 188.74 252.818 188.74C252.818 188.74 258.968 183.96 266.478 192.37Z" fill="url(#paint22_linear_85_117)"/>
<defs>
<linearGradient id="paint0_linear_85_117" x1="320.325" y1="370.834" x2="287.539" y2="469.196" gradientUnits="userSpaceOnUse">
<stop stop-color="#8E55F1"/>
<stop offset="0.140795" stop-color="#8B48DF"/>
<stop offset="0.274905" stop-color="#E04DD9"/>
<stop offset="0.492309" stop-color="#F496C8"/>
<stop offset="0.633104" stop-color="#FAD2BA"/>
<stop offset="0.856964" stop-color="#FEF7E5"/>
<stop offset="1" stop-color="#FFF5BF"/>
</linearGradient>
<linearGradient id="paint1_linear_85_117" x1="320.325" y1="304.213" x2="287.539" y2="402.575" gradientUnits="userSpaceOnUse">
<stop stop-color="#8E55F1"/>
<stop offset="0.140795" stop-color="#8B48DF"/>
<stop offset="0.274905" stop-color="#E04DD9"/>
<stop offset="0.492309" stop-color="#F496C8"/>
<stop offset="0.633104" stop-color="#FAD2BA"/>
<stop offset="0.856964" stop-color="#FEF7E5"/>
<stop offset="1" stop-color="#FFF5BF"/>
</linearGradient>
<linearGradient id="paint2_linear_85_117" x1="336.216" y1="370.834" x2="303.43" y2="469.196" gradientUnits="userSpaceOnUse">
<stop stop-color="#8E55F1"/>
<stop offset="0.140795" stop-color="#8B48DF"/>
<stop offset="0.274905" stop-color="#E04DD9"/>
<stop offset="0.492309" stop-color="#F496C8"/>
<stop offset="0.633104" stop-color="#FAD2BA"/>
<stop offset="0.856964" stop-color="#FEF7E5"/>
<stop offset="1" stop-color="#FFF5BF"/>
</linearGradient>
<linearGradient id="paint3_linear_85_117" x1="336.218" y1="304.225" x2="303.42" y2="402.599" gradientUnits="userSpaceOnUse">
<stop stop-color="#8E55F1"/>
<stop offset="0.140795" stop-color="#8B48DF"/>
<stop offset="0.274905" stop-color="#E04DD9"/>
<stop offset="0.492309" stop-color="#F496C8"/>
<stop offset="0.633104" stop-color="#FAD2BA"/>
<stop offset="0.856964" stop-color="#FEF7E5"/>
<stop offset="1" stop-color="#FFF5BF"/>
</linearGradient>
<linearGradient id="paint4_linear_85_117" x1="290.357" y1="326.82" x2="393.407" y2="358.42" gradientUnits="userSpaceOnUse">
<stop stop-color="#231F20"/>
<stop offset="0.13" stop-color="#231F20" stop-opacity="0.69"/>
<stop offset="0.25" stop-color="#231F20" stop-opacity="0.32"/>
<stop offset="1" stop-color="#231F20" stop-opacity="0"/>
</linearGradient>
<linearGradient id="paint5_linear_85_117" x1="320.325" y1="233.065" x2="287.539" y2="331.426" gradientUnits="userSpaceOnUse">
<stop stop-color="#8E55F1"/>
<stop offset="0.140795" stop-color="#8B48DF"/>
<stop offset="0.274905" stop-color="#E04DD9"/>
<stop offset="0.492309" stop-color="#F496C8"/>
<stop offset="0.633104" stop-color="#FAD2BA"/>
<stop offset="0.856964" stop-color="#FEF7E5"/>
<stop offset="1" stop-color="#FFF5BF"/>
</linearGradient>
<linearGradient id="paint6_linear_85_117" x1="336.216" y1="233.065" x2="303.43" y2="331.426" gradientUnits="userSpaceOnUse">
<stop stop-color="#8E55F1"/>
<stop offset="0.140795" stop-color="#8B48DF"/>
<stop offset="0.274905" stop-color="#E04DD9"/>
<stop offset="0.492309" stop-color="#F496C8"/>
<stop offset="0.633104" stop-color="#FAD2BA"/>
<stop offset="0.856964" stop-color="#FEF7E5"/>
<stop offset="1" stop-color="#FFF5BF"/>
</linearGradient>
<linearGradient id="paint7_linear_85_117" x1="364.118" y1="374.161" x2="361.858" y2="321.561" gradientUnits="userSpaceOnUse">
<stop stop-color="#231F20"/>
<stop offset="0.13" stop-color="#231F20" stop-opacity="0.69"/>
<stop offset="0.25" stop-color="#231F20" stop-opacity="0.32"/>
<stop offset="1" stop-color="#231F20" stop-opacity="0"/>
</linearGradient>
<linearGradient id="paint8_linear_85_117" x1="360.937" y1="400.56" x2="366.997" y2="303.67" gradientUnits="userSpaceOnUse">
<stop stop-color="#231F20"/>
<stop offset="0.13" stop-color="#231F20" stop-opacity="0.69"/>
<stop offset="0.25" stop-color="#231F20" stop-opacity="0.32"/>
<stop offset="1" stop-color="#231F20" stop-opacity="0"/>
</linearGradient>
<linearGradient id="paint9_linear_85_117" x1="214.458" y1="342.207" x2="639.818" y2="482.977" gradientUnits="userSpaceOnUse">
<stop stop-color="#231F20"/>
<stop offset="0.13" stop-color="#231F20" stop-opacity="0.69"/>
<stop offset="0.25" stop-color="#231F20" stop-opacity="0.32"/>
<stop offset="1" stop-color="#231F20" stop-opacity="0"/>
</linearGradient>
<linearGradient id="paint10_linear_85_117" x1="241.579" y1="349.047" x2="607.189" y2="470.047" gradientUnits="userSpaceOnUse">
<stop stop-color="#231F20"/>
<stop offset="0.13" stop-color="#231F20" stop-opacity="0.69"/>
<stop offset="0.25" stop-color="#231F20" stop-opacity="0.32"/>
<stop offset="1" stop-color="#231F20" stop-opacity="0"/>
</linearGradient>
<linearGradient id="paint11_linear_85_117" x1="363.279" y1="389.758" x2="392.809" y2="389.758" gradientUnits="userSpaceOnUse">
<stop stop-color="#231F20"/>
<stop offset="0.13" stop-color="#231F20" stop-opacity="0.69"/>
<stop offset="0.25" stop-color="#231F20" stop-opacity="0.32"/>
<stop offset="1" stop-color="#231F20" stop-opacity="0"/>
</linearGradient>
<linearGradient id="paint12_linear_85_117" x1="-920.481" y1="438.19" x2="-920.481" y2="516.603" gradientUnits="userSpaceOnUse">
<stop stop-color="#FCC400"/>
<stop offset="0.162" stop-color="#FBC000"/>
<stop offset="0.307" stop-color="#FBB500"/>
<stop offset="0.446" stop-color="#FBA300"/>
<stop offset="0.581" stop-color="#FA8900"/>
<stop offset="0.712" stop-color="#FA6800"/>
<stop offset="0.842" stop-color="#F93F00"/>
<stop offset="0.967" stop-color="#F81000"/>
<stop offset="1" stop-color="#F80300"/>
</linearGradient>
<linearGradient id="paint13_linear_85_117" x1="-1688.81" y1="610.767" x2="-1688.81" y2="696.698" gradientUnits="userSpaceOnUse">
<stop stop-color="#FCC400"/>
<stop offset="0.162" stop-color="#FBC000"/>
<stop offset="0.307" stop-color="#FBB500"/>
<stop offset="0.446" stop-color="#FBA300"/>
<stop offset="0.581" stop-color="#FA8900"/>
<stop offset="0.712" stop-color="#FA6800"/>
<stop offset="0.842" stop-color="#F93F00"/>
<stop offset="0.967" stop-color="#F81000"/>
<stop offset="1" stop-color="#F80300"/>
</linearGradient>
<linearGradient id="paint14_linear_85_117" x1="-711.972" y1="750.588" x2="-711.972" y2="900.977" gradientUnits="userSpaceOnUse">
<stop stop-color="#FCC400"/>
<stop offset="0.162" stop-color="#FBC000"/>
<stop offset="0.307" stop-color="#FBB500"/>
<stop offset="0.446" stop-color="#FBA300"/>
<stop offset="0.581" stop-color="#FA8900"/>
<stop offset="0.712" stop-color="#FA6800"/>
<stop offset="0.842" stop-color="#F93F00"/>
<stop offset="0.967" stop-color="#F81000"/>
<stop offset="1" stop-color="#F80300"/>
</linearGradient>
<linearGradient id="paint15_linear_85_117" x1="299.529" y1="218.42" x2="234.429" y2="308.24" gradientUnits="userSpaceOnUse">
<stop stop-color="#231F20"/>
<stop offset="0.13" stop-color="#231F20" stop-opacity="0.69"/>
<stop offset="0.25" stop-color="#231F20" stop-opacity="0.32"/>
<stop offset="1" stop-color="#231F20" stop-opacity="0"/>
</linearGradient>
<linearGradient id="paint16_linear_85_117" x1="383.819" y1="166.64" x2="108.789" y2="136.87" gradientUnits="userSpaceOnUse">
<stop stop-color="#231F20"/>
<stop offset="0.13" stop-color="#231F20" stop-opacity="0.69"/>
<stop offset="0.25" stop-color="#231F20" stop-opacity="0.32"/>
<stop offset="1" stop-color="#231F20" stop-opacity="0"/>
</linearGradient>
<linearGradient id="paint17_linear_85_117" x1="312.477" y1="229.342" x2="242.827" y2="166.132" gradientUnits="userSpaceOnUse">
<stop stop-color="#231F20"/>
<stop offset="0.13" stop-color="#231F20" stop-opacity="0.69"/>
<stop offset="0.25" stop-color="#231F20" stop-opacity="0.32"/>
<stop offset="1" stop-color="#231F20" stop-opacity="0"/>
</linearGradient>
<linearGradient id="paint18_linear_85_117" x1="-18.2723" y1="268.238" x2="-18.2723" y2="303.078" gradientUnits="userSpaceOnUse">
<stop stop-color="#FCC400"/>
<stop offset="0.162" stop-color="#FBC000"/>
<stop offset="0.307" stop-color="#FBB500"/>
<stop offset="0.446" stop-color="#FBA300"/>
<stop offset="0.581" stop-color="#FA8900"/>
<stop offset="0.712" stop-color="#FA6800"/>
<stop offset="0.842" stop-color="#F93F00"/>
<stop offset="0.967" stop-color="#F81000"/>
<stop offset="1" stop-color="#F80300"/>
</linearGradient>
<linearGradient id="paint19_linear_85_117" x1="-603.99" y1="378.958" x2="-603.99" y2="454.98" gradientUnits="userSpaceOnUse">
<stop stop-color="#FCC400"/>
<stop offset="0.162" stop-color="#FBC000"/>
<stop offset="0.307" stop-color="#FBB500"/>
<stop offset="0.446" stop-color="#FBA300"/>
<stop offset="0.581" stop-color="#FA8900"/>
<stop offset="0.712" stop-color="#FA6800"/>
<stop offset="0.842" stop-color="#F93F00"/>
<stop offset="0.967" stop-color="#F81000"/>
<stop offset="1" stop-color="#F80300"/>
</linearGradient>
<linearGradient id="paint20_linear_85_117" x1="-144.445" y1="238.537" x2="-144.445" y2="256.754" gradientUnits="userSpaceOnUse">
<stop stop-color="#FCC400"/>
<stop offset="0.162" stop-color="#FBC000"/>
<stop offset="0.307" stop-color="#FBB500"/>
<stop offset="0.446" stop-color="#FBA300"/>
<stop offset="0.581" stop-color="#FA8900"/>
<stop offset="0.712" stop-color="#FA6800"/>
<stop offset="0.842" stop-color="#F93F00"/>
<stop offset="0.967" stop-color="#F81000"/>
<stop offset="1" stop-color="#F80300"/>
</linearGradient>
<linearGradient id="paint21_linear_85_117" x1="-57.9535" y1="366.03" x2="-48.6171" y2="413.487" gradientUnits="userSpaceOnUse">
<stop stop-color="#FCC400"/>
<stop offset="0.162" stop-color="#FBC000"/>
<stop offset="0.307" stop-color="#FBB500"/>
<stop offset="0.446" stop-color="#FBA300"/>
<stop offset="0.581" stop-color="#FA8900"/>
<stop offset="0.712" stop-color="#FA6800"/>
<stop offset="0.842" stop-color="#F93F00"/>
<stop offset="0.967" stop-color="#F81000"/>
<stop offset="1" stop-color="#F80300"/>
</linearGradient>
<linearGradient id="paint22_linear_85_117" x1="-481.73" y1="291.159" x2="-481.73" y2="326.343" gradientUnits="userSpaceOnUse">
<stop stop-color="#FCC400"/>
<stop offset="0.162" stop-color="#FBC000"/>
<stop offset="0.307" stop-color="#FBB500"/>
<stop offset="0.446" stop-color="#FBA300"/>
<stop offset="0.581" stop-color="#FA8900"/>
<stop offset="0.712" stop-color="#FA6800"/>
<stop offset="0.842" stop-color="#F93F00"/>
<stop offset="0.967" stop-color="#F81000"/>
<stop offset="1" stop-color="#F80300"/>
</linearGradient>
</defs>
</svg>
