<svg width="500" height="500" viewBox="0 0 500 500" fill="none" xmlns="http://www.w3.org/2000/svg">
<g opacity="0.03">
<path d="M250 479.73C375.855 479.73 477.88 470.207 477.88 458.46C477.88 446.713 375.855 437.19 250 437.19C124.145 437.19 22.1201 446.713 22.1201 458.46C22.1201 470.207 124.145 479.73 250 479.73Z" fill="#000001"/>
</g>
<g opacity="0.58">
<path d="M420.08 437.13C420.08 437.13 403.39 432.57 399.76 417.04C399.76 417.04 425.61 411.81 426.35 438.5L420.08 437.13Z" fill="url(#paint0_linear_5_217)"/>
</g>
<g opacity="0.73">
<path d="M422.12 435.47C422.12 435.47 410.46 417.04 420.72 399.81C420.72 399.81 440.38 412.29 431.64 435.51L422.11 435.47H422.12Z" fill="url(#paint1_linear_5_217)"/>
</g>
<path d="M425.13 435.49C425.13 435.49 431.29 416.03 449.91 412.34C449.91 412.34 453.4 424.98 437.85 435.54L425.13 435.49Z" fill="url(#paint2_linear_5_217)"/>
<path d="M413.03 435.05L416.41 458.19L437.71 458.28L440.85 435.17L413.03 435.05Z" fill="#24285B"/>
<path d="M384.15 153.7H200.87V458.58H384.15V153.7Z" fill="#24285B"/>
<g opacity="0.07">
<path d="M356.38 244.51H228.29C221.492 244.51 215.98 250.021 215.98 256.82V280.96C215.98 287.759 221.492 293.27 228.29 293.27H356.38C363.179 293.27 368.69 287.759 368.69 280.96V256.82C368.69 250.021 363.179 244.51 356.38 244.51Z" fill="url(#paint3_linear_5_217)"/>
</g>
<path d="M340.84 281.99C348.042 281.99 353.88 276.152 353.88 268.95C353.88 261.748 348.042 255.91 340.84 255.91C333.638 255.91 327.8 261.748 327.8 268.95C327.8 276.152 333.638 281.99 340.84 281.99Z" fill="url(#paint4_linear_5_217)"/>
<path d="M308.49 262.75H231.62V275.14H308.49V262.75Z" fill="url(#paint5_linear_5_217)"/>
<g opacity="0.07">
<path d="M356.38 173.49H228.29C221.492 173.49 215.98 179.001 215.98 185.8V209.94C215.98 216.739 221.492 222.25 228.29 222.25H356.38C363.179 222.25 368.69 216.739 368.69 209.94V185.8C368.69 179.001 363.179 173.49 356.38 173.49Z" fill="url(#paint6_linear_5_217)"/>
</g>
<path d="M340.84 210.97C348.042 210.97 353.88 205.132 353.88 197.93C353.88 190.728 348.042 184.89 340.84 184.89C333.638 184.89 327.8 190.728 327.8 197.93C327.8 205.132 333.638 210.97 340.84 210.97Z" fill="url(#paint7_linear_5_217)"/>
<path d="M308.49 191.73H231.62V204.12H308.49V191.73Z" fill="url(#paint8_linear_5_217)"/>
<g opacity="0.07">
<path d="M356.38 318.62H228.29C221.492 318.62 215.98 324.131 215.98 330.93V355.07C215.98 361.869 221.492 367.38 228.29 367.38H356.38C363.179 367.38 368.69 361.869 368.69 355.07V330.93C368.69 324.131 363.179 318.62 356.38 318.62Z" fill="url(#paint9_linear_5_217)"/>
</g>
<path d="M340.84 356.09C348.042 356.09 353.88 350.252 353.88 343.05C353.88 335.848 348.042 330.01 340.84 330.01C333.638 330.01 327.8 335.848 327.8 343.05C327.8 350.252 333.638 356.09 340.84 356.09Z" fill="url(#paint10_linear_5_217)"/>
<path d="M308.49 336.86H231.62V349.25H308.49V336.86Z" fill="url(#paint11_linear_5_217)"/>
<g opacity="0.07">
<path d="M356.38 392.72H228.29C221.492 392.72 215.98 398.231 215.98 405.03V429.17C215.98 435.969 221.492 441.48 228.29 441.48H356.38C363.179 441.48 368.69 435.969 368.69 429.17V405.03C368.69 398.231 363.179 392.72 356.38 392.72Z" fill="url(#paint12_linear_5_217)"/>
</g>
<path d="M340.84 430.2C348.042 430.2 353.88 424.362 353.88 417.16C353.88 409.958 348.042 404.12 340.84 404.12C333.638 404.12 327.8 409.958 327.8 417.16C327.8 424.362 333.638 430.2 340.84 430.2Z" fill="url(#paint13_linear_5_217)"/>
<path d="M308.49 410.97H231.62V423.36H308.49V410.97Z" fill="url(#paint14_linear_5_217)"/>
<path d="M111.03 316.12L94.4601 369.04C89.9401 383.48 79.6001 395.37 65.9401 401.87L41.6201 413.43L42.6001 420.61L78.9601 412.77C96.2101 407.66 110.52 395.53 118.38 379.34L144.06 326.46L111.04 316.12H111.03Z" fill="#F4A28C"/>
<path d="M411.334 34.3034L230.483 64.0484L241.919 133.574L422.769 103.829L411.334 34.3034Z" fill="#24285B"/>
<path d="M371.398 20.2456L263.813 37.9404L267.116 58.0206L374.701 40.3259L371.398 20.2456Z" fill="url(#paint15_linear_5_217)"/>
<g opacity="0.07">
<path d="M385.688 49.516L259.296 70.3041C252.587 71.4075 248.043 77.7402 249.147 84.4487L253.064 108.269C254.168 114.977 260.501 119.521 267.209 118.418L393.601 97.6296C400.309 96.5262 404.853 90.1935 403.75 83.485L399.832 59.665C398.729 52.9565 392.396 48.4127 385.688 49.516Z" fill="url(#paint16_linear_5_217)"/>
</g>
<path d="M374.32 89.21C381.522 89.21 387.36 83.3718 387.36 76.17C387.36 68.9682 381.522 63.13 374.32 63.13C367.118 63.13 361.28 68.9682 361.28 76.17C361.28 83.3718 367.118 89.21 374.32 89.21Z" fill="url(#paint17_linear_5_217)"/>
<path d="M341.394 75.2883L265.543 87.7637L267.554 99.9894L343.405 87.514L341.394 75.2883Z" fill="url(#paint18_linear_5_217)"/>
<path d="M165.86 331.04L173.65 444.39L166.42 446.91L137.64 340.86L165.86 331.04Z" fill="#F4A28C"/>
<path d="M175.13 446.34C175.13 446.34 176.7 453.06 181.75 455.14C186.81 457.22 184.25 464.55 176.64 460.09C173.73 458.39 171.52 456.76 169.9 455.39C167.97 453.76 165.57 452.93 163.08 452.48C162.3 452.34 161.59 451.81 161.24 450.51C160.23 446.8 168.64 443.3 168.64 443.3L175.13 446.35V446.34Z" fill="url(#paint19_linear_5_217)"/>
<path d="M42.5902 420.6C42.5902 420.6 37.4602 424.52 37.6202 429.63C37.7902 434.75 30.5502 435.38 31.4302 427.16C31.7702 424.03 32.3102 421.51 32.8502 419.6C33.5002 417.32 33.2902 414.96 32.7202 412.66C32.5402 411.94 32.7202 411.13 33.6902 410.33C36.4702 408.04 42.6902 413.88 42.6902 413.88L42.5802 420.59L42.5902 420.6Z" fill="url(#paint20_linear_5_217)"/>
<path d="M122.49 166.73L125.19 177.64L116.35 182.32L114.79 163.65L122.49 166.73Z" fill="#F4A28C"/>
<path d="M112.72 153.15C114.88 148.88 120.83 148.44 123.81 152.19C127.09 156.3 130.92 162.72 125.77 165.64C117.89 170.11 111.79 160.1 111.79 160.1C111.79 160.1 111.08 156.39 112.71 153.15H112.72Z" fill="#F4A28C"/>
<path d="M22.3301 222L61.7676 272.532L97.4712 244.668L58.0337 194.135L22.3301 222Z" fill="#FFD200"/>
<path d="M76.42 200.93C76.42 200.93 38.34 260.42 45.97 269.2C70.15 297.01 123.84 234.37 123.84 234.37L76.42 200.94V200.93Z" fill="#F4A28C"/>
<path d="M162.51 192.05C140.27 175.73 109.77 175.16 86.9702 190.69C77.0102 197.47 69.3402 207.6 72.8502 222.26C81.0902 256.66 107.44 279.33 108.26 309.58L170.65 305.39V266.45C170.65 259.01 173.67 251.85 179.15 246.81C184.59 241.8 190 233.62 186.3 222.4C183.01 212.43 174.49 200.83 162.51 192.04V192.05Z" fill="url(#paint21_linear_5_217)"/>
<path d="M117.67 160.11C117.67 160.11 115.88 158.36 114.83 160.56C113.78 162.77 117.08 164.13 118.18 163.07C119.28 162 117.67 160.11 117.67 160.11Z" fill="#F4A28C"/>
<g opacity="0.08">
<path d="M131.62 208.26C131.62 208.26 118.14 234.02 133.79 259.14C149.44 284.26 119.78 308.82 119.78 308.82L170.65 305.4V283.2L131.62 208.27V208.26Z" fill="#000001"/>
</g>
<path d="M105.64 192.84C106.85 188.18 112.4 179.71 104.57 164.45C102.91 161.22 101.61 153.65 104.72 148.41C112.16 135.87 124.12 140.16 122.71 147.19C121.3 154.22 120.3 157.56 120.3 157.56C120.3 157.56 142.95 173.81 139.65 185.78C136.71 196.42 100.61 212.26 105.64 192.85V192.84Z" fill="#24285B"/>
<path d="M105.52 293.66H170.65L181.02 383.79L84.4102 379.43L105.52 293.66Z" fill="#24285B"/>
<path d="M134.21 226.58C127.76 218.7 128.92 207.02 136.89 200.68C139.95 198.25 143.85 195.6 148.82 192.75C173.67 178.53 214.95 147.09 232.32 103.74C232.32 103.74 236.4 87.88 248.49 88.45C260.58 89.02 256.42 104.03 244.37 103.89C244.37 103.89 234.53 197.98 162.24 232.98C152.6 237.65 140.98 234.87 134.2 226.57L134.21 226.58Z" fill="#F4A28C"/>
<path d="M88.8401 69.53V103.87H111.02L115.87 117.54L121.61 103.87H143.79V69.53H88.8401Z" fill="#E6E6E6"/>
<g opacity="0.12">
<path d="M113.54 94.37C113.54 94.37 113.49 94.37 113.47 94.37C112.97 94.35 112.5 94.11 112.19 93.71L106.39 86.24C105.81 85.49 105.94 84.41 106.69 83.83C107.44 83.25 108.52 83.39 109.1 84.13L113.66 90L124.91 77.85C125.55 77.15 126.64 77.11 127.34 77.76C128.04 78.4 128.08 79.49 127.43 80.19L114.81 93.83C114.48 94.18 114.03 94.38 113.55 94.38L113.54 94.37Z" fill="#000001"/>
</g>
<defs>
<linearGradient id="paint0_linear_5_217" x1="426.132" y1="416.6" x2="405.374" y2="442.898" gradientUnits="userSpaceOnUse">
<stop stop-color="#8E55F1"/>
<stop offset="0.140795" stop-color="#8B48DF"/>
<stop offset="0.274905" stop-color="#E04DD9"/>
<stop offset="0.492309" stop-color="#F496C8"/>
<stop offset="0.633104" stop-color="#FAD2BA"/>
<stop offset="0.856964" stop-color="#FEF7E5"/>
<stop offset="1" stop-color="#FFF5BF"/>
</linearGradient>
<linearGradient id="paint1_linear_5_217" x1="433.737" y1="399.769" x2="405.626" y2="414.035" gradientUnits="userSpaceOnUse">
<stop stop-color="#8E55F1"/>
<stop offset="0.140795" stop-color="#8B48DF"/>
<stop offset="0.274905" stop-color="#E04DD9"/>
<stop offset="0.492309" stop-color="#F496C8"/>
<stop offset="0.633104" stop-color="#FAD2BA"/>
<stop offset="0.856964" stop-color="#FEF7E5"/>
<stop offset="1" stop-color="#FFF5BF"/>
</linearGradient>
<linearGradient id="paint2_linear_5_217" x1="450.039" y1="412.313" x2="427.568" y2="437.666" gradientUnits="userSpaceOnUse">
<stop stop-color="#8E55F1"/>
<stop offset="0.140795" stop-color="#8B48DF"/>
<stop offset="0.274905" stop-color="#E04DD9"/>
<stop offset="0.492309" stop-color="#F496C8"/>
<stop offset="0.633104" stop-color="#FAD2BA"/>
<stop offset="0.856964" stop-color="#FEF7E5"/>
<stop offset="1" stop-color="#FFF5BF"/>
</linearGradient>
<linearGradient id="paint3_linear_5_217" x1="-2995.65" y1="431.895" x2="-2995.65" y2="495.428" gradientUnits="userSpaceOnUse">
<stop stop-color="#FCC400"/>
<stop offset="0.162" stop-color="#FBC000"/>
<stop offset="0.307" stop-color="#FBB500"/>
<stop offset="0.446" stop-color="#FBA300"/>
<stop offset="0.581" stop-color="#FA8900"/>
<stop offset="0.712" stop-color="#FA6800"/>
<stop offset="0.842" stop-color="#F93F00"/>
<stop offset="0.967" stop-color="#F81000"/>
<stop offset="1" stop-color="#F80300"/>
</linearGradient>
<linearGradient id="paint4_linear_5_217" x1="353.666" y1="255.88" x2="328.244" y2="282.376" gradientUnits="userSpaceOnUse">
<stop stop-color="#8E55F1"/>
<stop offset="0.140795" stop-color="#8B48DF"/>
<stop offset="0.274905" stop-color="#E04DD9"/>
<stop offset="0.492309" stop-color="#F496C8"/>
<stop offset="0.633104" stop-color="#FAD2BA"/>
<stop offset="0.856964" stop-color="#FEF7E5"/>
<stop offset="1" stop-color="#FFF5BF"/>
</linearGradient>
<linearGradient id="paint5_linear_5_217" x1="-1385.03" y1="310.365" x2="-1385.03" y2="326.509" gradientUnits="userSpaceOnUse">
<stop stop-color="#FCC400"/>
<stop offset="0.162" stop-color="#FBC000"/>
<stop offset="0.307" stop-color="#FBB500"/>
<stop offset="0.446" stop-color="#FBA300"/>
<stop offset="0.581" stop-color="#FA8900"/>
<stop offset="0.712" stop-color="#FA6800"/>
<stop offset="0.842" stop-color="#F93F00"/>
<stop offset="0.967" stop-color="#F81000"/>
<stop offset="1" stop-color="#F80300"/>
</linearGradient>
<linearGradient id="paint6_linear_5_217" x1="-2995.65" y1="360.875" x2="-2995.65" y2="424.408" gradientUnits="userSpaceOnUse">
<stop stop-color="#FCC400"/>
<stop offset="0.162" stop-color="#FBC000"/>
<stop offset="0.307" stop-color="#FBB500"/>
<stop offset="0.446" stop-color="#FBA300"/>
<stop offset="0.581" stop-color="#FA8900"/>
<stop offset="0.712" stop-color="#FA6800"/>
<stop offset="0.842" stop-color="#F93F00"/>
<stop offset="0.967" stop-color="#F81000"/>
<stop offset="1" stop-color="#F80300"/>
</linearGradient>
<linearGradient id="paint7_linear_5_217" x1="353.666" y1="184.86" x2="328.244" y2="211.356" gradientUnits="userSpaceOnUse">
<stop stop-color="#8E55F1"/>
<stop offset="0.140795" stop-color="#8B48DF"/>
<stop offset="0.274905" stop-color="#E04DD9"/>
<stop offset="0.492309" stop-color="#F496C8"/>
<stop offset="0.633104" stop-color="#FAD2BA"/>
<stop offset="0.856964" stop-color="#FEF7E5"/>
<stop offset="1" stop-color="#FFF5BF"/>
</linearGradient>
<linearGradient id="paint8_linear_5_217" x1="-1385.03" y1="239.345" x2="-1385.03" y2="255.489" gradientUnits="userSpaceOnUse">
<stop stop-color="#FCC400"/>
<stop offset="0.162" stop-color="#FBC000"/>
<stop offset="0.307" stop-color="#FBB500"/>
<stop offset="0.446" stop-color="#FBA300"/>
<stop offset="0.581" stop-color="#FA8900"/>
<stop offset="0.712" stop-color="#FA6800"/>
<stop offset="0.842" stop-color="#F93F00"/>
<stop offset="0.967" stop-color="#F81000"/>
<stop offset="1" stop-color="#F80300"/>
</linearGradient>
<linearGradient id="paint9_linear_5_217" x1="-2995.65" y1="506.005" x2="-2995.65" y2="569.538" gradientUnits="userSpaceOnUse">
<stop stop-color="#FCC400"/>
<stop offset="0.162" stop-color="#FBC000"/>
<stop offset="0.307" stop-color="#FBB500"/>
<stop offset="0.446" stop-color="#FBA300"/>
<stop offset="0.581" stop-color="#FA8900"/>
<stop offset="0.712" stop-color="#FA6800"/>
<stop offset="0.842" stop-color="#F93F00"/>
<stop offset="0.967" stop-color="#F81000"/>
<stop offset="1" stop-color="#F80300"/>
</linearGradient>
<linearGradient id="paint10_linear_5_217" x1="353.666" y1="329.98" x2="328.244" y2="356.476" gradientUnits="userSpaceOnUse">
<stop stop-color="#8E55F1"/>
<stop offset="0.140795" stop-color="#8B48DF"/>
<stop offset="0.274905" stop-color="#E04DD9"/>
<stop offset="0.492309" stop-color="#F496C8"/>
<stop offset="0.633104" stop-color="#FAD2BA"/>
<stop offset="0.856964" stop-color="#FEF7E5"/>
<stop offset="1" stop-color="#FFF5BF"/>
</linearGradient>
<linearGradient id="paint11_linear_5_217" x1="-1385.03" y1="384.475" x2="-1385.03" y2="400.619" gradientUnits="userSpaceOnUse">
<stop stop-color="#FCC400"/>
<stop offset="0.162" stop-color="#FBC000"/>
<stop offset="0.307" stop-color="#FBB500"/>
<stop offset="0.446" stop-color="#FBA300"/>
<stop offset="0.581" stop-color="#FA8900"/>
<stop offset="0.712" stop-color="#FA6800"/>
<stop offset="0.842" stop-color="#F93F00"/>
<stop offset="0.967" stop-color="#F81000"/>
<stop offset="1" stop-color="#F80300"/>
</linearGradient>
<linearGradient id="paint12_linear_5_217" x1="-2995.65" y1="580.105" x2="-2995.65" y2="643.638" gradientUnits="userSpaceOnUse">
<stop stop-color="#FCC400"/>
<stop offset="0.162" stop-color="#FBC000"/>
<stop offset="0.307" stop-color="#FBB500"/>
<stop offset="0.446" stop-color="#FBA300"/>
<stop offset="0.581" stop-color="#FA8900"/>
<stop offset="0.712" stop-color="#FA6800"/>
<stop offset="0.842" stop-color="#F93F00"/>
<stop offset="0.967" stop-color="#F81000"/>
<stop offset="1" stop-color="#F80300"/>
</linearGradient>
<linearGradient id="paint13_linear_5_217" x1="353.666" y1="404.09" x2="328.244" y2="430.586" gradientUnits="userSpaceOnUse">
<stop stop-color="#8E55F1"/>
<stop offset="0.140795" stop-color="#8B48DF"/>
<stop offset="0.274905" stop-color="#E04DD9"/>
<stop offset="0.492309" stop-color="#F496C8"/>
<stop offset="0.633104" stop-color="#FAD2BA"/>
<stop offset="0.856964" stop-color="#FEF7E5"/>
<stop offset="1" stop-color="#FFF5BF"/>
</linearGradient>
<linearGradient id="paint14_linear_5_217" x1="-1385.03" y1="458.585" x2="-1385.03" y2="474.729" gradientUnits="userSpaceOnUse">
<stop stop-color="#FCC400"/>
<stop offset="0.162" stop-color="#FBC000"/>
<stop offset="0.307" stop-color="#FBB500"/>
<stop offset="0.446" stop-color="#FBA300"/>
<stop offset="0.581" stop-color="#FA8900"/>
<stop offset="0.712" stop-color="#FA6800"/>
<stop offset="0.842" stop-color="#F93F00"/>
<stop offset="0.967" stop-color="#F81000"/>
<stop offset="1" stop-color="#F80300"/>
</linearGradient>
<linearGradient id="paint15_linear_5_217" x1="370.512" y1="20.3678" x2="369.957" y2="59.45" gradientUnits="userSpaceOnUse">
<stop stop-color="#8E55F1"/>
<stop offset="0.140795" stop-color="#8B48DF"/>
<stop offset="0.274905" stop-color="#E04DD9"/>
<stop offset="0.492309" stop-color="#F496C8"/>
<stop offset="0.633104" stop-color="#FAD2BA"/>
<stop offset="0.856964" stop-color="#FEF7E5"/>
<stop offset="1" stop-color="#FFF5BF"/>
</linearGradient>
<linearGradient id="paint16_linear_5_217" x1="-2891.5" y1="778.428" x2="-2881.18" y2="841.118" gradientUnits="userSpaceOnUse">
<stop stop-color="#FCC400"/>
<stop offset="0.162" stop-color="#FBC000"/>
<stop offset="0.307" stop-color="#FBB500"/>
<stop offset="0.446" stop-color="#FBA300"/>
<stop offset="0.581" stop-color="#FA8900"/>
<stop offset="0.712" stop-color="#FA6800"/>
<stop offset="0.842" stop-color="#F93F00"/>
<stop offset="0.967" stop-color="#F81000"/>
<stop offset="1" stop-color="#F80300"/>
</linearGradient>
<linearGradient id="paint17_linear_5_217" x1="387.146" y1="63.1001" x2="361.723" y2="89.5961" gradientUnits="userSpaceOnUse">
<stop stop-color="#8E55F1"/>
<stop offset="0.140795" stop-color="#8B48DF"/>
<stop offset="0.274905" stop-color="#E04DD9"/>
<stop offset="0.492309" stop-color="#F496C8"/>
<stop offset="0.633104" stop-color="#FAD2BA"/>
<stop offset="0.856964" stop-color="#FEF7E5"/>
<stop offset="1" stop-color="#FFF5BF"/>
</linearGradient>
<linearGradient id="paint18_linear_5_217" x1="-1321.94" y1="397.117" x2="-1319.32" y2="413.047" gradientUnits="userSpaceOnUse">
<stop stop-color="#FCC400"/>
<stop offset="0.162" stop-color="#FBC000"/>
<stop offset="0.307" stop-color="#FBB500"/>
<stop offset="0.446" stop-color="#FBA300"/>
<stop offset="0.581" stop-color="#FA8900"/>
<stop offset="0.712" stop-color="#FA6800"/>
<stop offset="0.842" stop-color="#F93F00"/>
<stop offset="0.967" stop-color="#F81000"/>
<stop offset="1" stop-color="#F80300"/>
</linearGradient>
<linearGradient id="paint19_linear_5_217" x1="184.182" y1="443.279" x2="167.118" y2="465.962" gradientUnits="userSpaceOnUse">
<stop stop-color="#8E55F1"/>
<stop offset="0.140795" stop-color="#8B48DF"/>
<stop offset="0.274905" stop-color="#E04DD9"/>
<stop offset="0.492309" stop-color="#F496C8"/>
<stop offset="0.633104" stop-color="#FAD2BA"/>
<stop offset="0.856964" stop-color="#FEF7E5"/>
<stop offset="1" stop-color="#FFF5BF"/>
</linearGradient>
<linearGradient id="paint20_linear_5_217" x1="42.5972" y1="409.771" x2="24.158" y2="418.991" gradientUnits="userSpaceOnUse">
<stop stop-color="#8E55F1"/>
<stop offset="0.140795" stop-color="#8B48DF"/>
<stop offset="0.274905" stop-color="#E04DD9"/>
<stop offset="0.492309" stop-color="#F496C8"/>
<stop offset="0.633104" stop-color="#FAD2BA"/>
<stop offset="0.856964" stop-color="#FEF7E5"/>
<stop offset="1" stop-color="#FFF5BF"/>
</linearGradient>
<linearGradient id="paint21_linear_5_217" x1="186.57" y1="179.266" x2="59.9623" y2="296.386" gradientUnits="userSpaceOnUse">
<stop stop-color="#8E55F1"/>
<stop offset="0.140795" stop-color="#8B48DF"/>
<stop offset="0.274905" stop-color="#E04DD9"/>
<stop offset="0.492309" stop-color="#F496C8"/>
<stop offset="0.633104" stop-color="#FAD2BA"/>
<stop offset="0.856964" stop-color="#FEF7E5"/>
<stop offset="1" stop-color="#FFF5BF"/>
</linearGradient>
</defs>
</svg>
