<svg width="500" height="500" viewBox="0 0 500 500" fill="none" xmlns="http://www.w3.org/2000/svg">
<path opacity="0.18" d="M122.9 370.72C108.67 387.33 88.4699 400.76 83.3199 422.02C79.2799 438.65 86.7299 457.45 101.05 466.79C113.3 474.82 128.93 475.86 143.42 474.06C157.91 472.26 172.07 467.99 186.58 466.13C203.84 463.97 221.33 465.37 238.69 464.44C256.05 463.51 274.02 459.79 287.61 448.94C291.81 445.59 295.6 441.46 297.31 436.37C299.11 430.97 298.4 425.12 298.48 419.42C298.88 401.46 307.31 384.62 321.44 373.53C329.42 367.36 338.89 363.29 346.55 356.71C359.39 345.44 365.61 328.41 363.04 311.52C362.07 305.54 231.84 311.19 219.2 311.66C207.43 312.1 195.67 312.64 183.9 313.28C175.94 313.71 159.62 311.66 153.23 316.98C147.49 321.76 144.52 336.04 140.97 342.88C135.88 352.74 130.1 362.26 122.88 370.72H122.9Z" fill="#68E1FD"/>
<path d="M456.62 41.02V296.21C456.62 306.86 448 315.5 437.35 315.51H52.9301C42.2801 315.51 33.6401 306.87 33.6401 296.22V41.02C33.6701 30.38 42.2901 21.77 52.9301 21.76H437.35C447.98 21.78 456.59 30.39 456.62 41.02Z" fill="url(#paint0_linear_1_230)" fill-opacity="0.7"/>
<path opacity="0.19" d="M153.22 73.36L146.91 76.33V203.52L163.41 263.08L165.69 314.68L207.43 315.44V226.48L224.68 200.97L343.37 200.51V193.9L153.23 73.36H153.22ZM209.1 203.71C207.43 207.5 203.88 211.06 201.4 214.38C198.36 218.47 195.28 222.54 192.15 226.61C191.88 227.01 191.52 227.36 191.12 227.63C189.66 228.46 187.96 227.08 186.89 225.79C180.79 218.42 176.08 210 173 200.94C172.79 200.5 172.76 199.99 172.9 199.52C173.21 198.84 174.14 198.76 174.9 198.76C184.31 199.02 193.72 199.33 203.13 199.71C206.35 199.83 211.09 199.14 209.1 203.69V203.71Z" fill="url(#paint1_linear_1_230)"/>
<path d="M457.89 40.95V44.74H34.8999V40.95C34.8999 30.29 43.5399 21.65 54.1999 21.64H438.59C449.25 21.64 457.88 30.28 457.89 40.94V40.95Z" fill="#68E1FD"/>
<path d="M457.89 40.95V44.74H34.8999V40.95C34.8999 30.29 43.5399 21.65 54.1999 21.64H438.59C449.25 21.64 457.88 30.28 457.89 40.94V40.95Z" fill="#68E1FD"/>
<path d="M457.89 40.95V44.74H34.8999V40.95C34.8999 30.29 43.5399 21.65 54.1999 21.64H438.59C449.25 21.64 457.88 30.28 457.89 40.94V40.95Z" fill="url(#paint2_linear_1_230)"/>
<path d="M56.8403 33.21C56.8403 34.89 55.4803 36.25 53.8003 36.25C52.1203 36.25 50.7603 34.89 50.7603 33.21C50.7603 31.53 52.1203 30.17 53.8003 30.17C55.4803 30.17 56.8403 31.53 56.8403 33.21Z" fill="url(#paint3_linear_1_230)"/>
<path d="M70.9902 33.21C70.9902 34.89 69.6301 36.25 67.9501 36.25C66.2701 36.25 64.9102 34.89 64.9102 33.21C64.9102 31.53 66.2701 30.17 67.9501 30.17C69.6301 30.17 70.9902 31.53 70.9902 33.21Z" fill="url(#paint4_linear_1_230)"/>
<path d="M82.1001 36.24C83.779 36.24 85.1401 34.879 85.1401 33.2C85.1401 31.5211 83.779 30.16 82.1001 30.16C80.4211 30.16 79.0601 31.5211 79.0601 33.2C79.0601 34.879 80.4211 36.24 82.1001 36.24Z" fill="url(#paint5_linear_1_230)"/>
<path d="M126.28 44.76V315.44H54.1804C43.5304 315.44 34.8904 306.8 34.8804 296.15V44.76H126.27H126.28Z" fill="url(#paint6_linear_1_230)"/>
<path d="M114.08 88.22H47.8801C46.7601 88.22 45.8601 87.31 45.8501 86.19C45.8501 85.08 46.7501 84.17 47.8601 84.16H114.08C115.2 84.16 116.1 85.07 116.11 86.19C116.11 87.31 115.2 88.21 114.08 88.22Z" fill="url(#paint7_linear_1_230)"/>
<path d="M114.08 125.65H47.8801C46.7601 125.65 45.8601 124.74 45.8501 123.62C45.8501 122.5 46.7501 121.59 47.8701 121.59H114.08C115.2 121.59 116.11 122.5 116.11 123.62C116.11 124.74 115.2 125.64 114.08 125.65Z" fill="url(#paint8_linear_1_230)"/>
<path d="M114.08 163.09H47.8799C46.7599 163.09 45.8599 162.18 45.8499 161.06C45.8299 159.94 46.7299 159.01 47.8499 159H47.8699H114.07C115.19 159 116.09 159.91 116.1 161.03C116.12 162.15 115.22 163.08 114.1 163.09H114.08Z" fill="url(#paint9_linear_1_230)"/>
<path d="M114.08 200.51H47.8801C46.7701 200.51 45.8601 199.61 45.8501 198.5C45.8501 197.39 46.7501 196.48 47.8601 196.47H114.08C115.19 196.47 116.1 197.34 116.13 198.45C116.14 199.57 115.24 200.49 114.12 200.51C114.11 200.51 114.09 200.51 114.08 200.51Z" fill="url(#paint10_linear_1_230)"/>
<path d="M350.5 227.56H281.99V252.91H350.5V227.56Z" fill="#68E1FD"/>
<path d="M457.89 44.76V296.13C457.89 306.78 449.27 315.43 438.61 315.44H374.58V44.76H457.89Z" fill="url(#paint11_linear_1_230)"/>
<path d="M457.89 116.16H374.58V228.65H457.89V116.16Z" fill="url(#paint12_linear_1_230)"/>
<path d="M348.06 69.62H153.21V196.46H348.06V69.62Z" fill="white"/>
<path d="M341.11 76.31H160.5V189.76H341.11V76.31Z" fill="#68E1FD"/>
<path d="M341.11 137.91V189.76H160.5V155.37C170.79 143.88 186 136.27 199.54 126.87C202 125.01 204.69 123.46 207.53 122.25C219.16 117.86 231.49 125.51 242.06 132.04C254.86 139.95 268.35 146.69 282.36 152.17C277.65 145.36 270.82 140.29 262.93 137.75L281.36 122.48C283.64 120.59 285.99 118.69 288.77 117.66C294.36 115.66 300.51 117.74 306.03 119.94C313.75 123.02 321.35 126.37 328.84 129.98C333.24 132.14 337.7 134.43 341.1 137.92L341.11 137.91Z" fill="url(#paint13_linear_1_230)"/>
<path d="M314.96 110.53C321.681 110.53 327.13 105.081 327.13 98.36C327.13 91.6387 321.681 86.19 314.96 86.19C308.239 86.19 302.79 91.6387 302.79 98.36C302.79 105.081 308.239 110.53 314.96 110.53Z" fill="white"/>
<path d="M165.68 463.22C166.94 463.22 167.96 462.2 167.96 460.94V229.86C167.96 228.6 166.94 227.58 165.68 227.58C164.42 227.58 163.4 228.6 163.4 229.86V460.92C163.4 462.18 164.42 463.2 165.68 463.2V463.22Z" fill="#68E1FD"/>
<path d="M198.25 463.22C199.51 463.22 200.53 462.2 200.53 460.94V229.86C200.53 228.6 199.51 227.58 198.25 227.58C196.99 227.58 195.97 228.6 195.97 229.86V460.92C195.97 462.18 196.99 463.2 198.25 463.2V463.22Z" fill="#68E1FD"/>
<path d="M198.25 247.29H165.69V252.53H198.25V247.29Z" fill="#68E1FD"/>
<path d="M198.25 280.96H165.69V286.2H198.25V280.96Z" fill="#68E1FD"/>
<path d="M198.25 314.62H165.69V319.86H198.25V314.62Z" fill="#68E1FD"/>
<path d="M198.25 348.29H165.69V353.53H198.25V348.29Z" fill="#68E1FD"/>
<path d="M198.25 381.96H165.69V387.2H198.25V381.96Z" fill="#68E1FD"/>
<path d="M198.25 415.63H165.69V420.87H198.25V415.63Z" fill="#68E1FD"/>
<path d="M165.68 463.22C166.94 463.22 167.96 462.2 167.96 460.94V229.86C167.96 228.6 166.94 227.58 165.68 227.58C164.42 227.58 163.4 228.6 163.4 229.86V460.92C163.4 462.18 164.42 463.2 165.68 463.2V463.22Z" fill="url(#paint14_linear_1_230)"/>
<path d="M198.25 463.22C199.51 463.22 200.53 462.2 200.53 460.94V229.86C200.53 228.6 199.51 227.58 198.25 227.58C196.99 227.58 195.97 228.6 195.97 229.86V460.92C195.97 462.18 196.99 463.2 198.25 463.2V463.22Z" fill="url(#paint15_linear_1_230)"/>
<path d="M198.25 247.29H165.69V252.53H198.25V247.29Z" fill="url(#paint16_linear_1_230)"/>
<path d="M198.25 280.96H165.69V286.2H198.25V280.96Z" fill="url(#paint17_linear_1_230)"/>
<path d="M198.25 314.62H165.69V319.86H198.25V314.62Z" fill="url(#paint18_linear_1_230)"/>
<path d="M198.25 348.29H165.69V353.53H198.25V348.29Z" fill="url(#paint19_linear_1_230)"/>
<path d="M198.25 381.96H165.69V387.2H198.25V381.96Z" fill="url(#paint20_linear_1_230)"/>
<path d="M198.25 415.63H165.69V420.87H198.25V415.63Z" fill="url(#paint21_linear_1_230)"/>
<path opacity="0.19" d="M167.48 164.69C168.75 166.15 169.98 167.98 171.89 168.29C172.49 168.29 173.09 168.43 173.64 168.66C174.4 169.13 174.49 170.18 174.51 171.05C174.62 174.99 174.72 178.93 174.82 182.86C174.88 185.07 174.82 187.5 173.39 189.16C172.74 189.92 171.87 190.4 171.18 191.15C170.42 191.84 170.23 192.96 170.71 193.86C174.55 193.87 178.36 194.6 181.93 196.02L161.27 196.44C160.75 196.5 160.22 196.4 159.75 196.17C159.04 195.71 158.94 194.74 158.92 193.89C158.84 190.51 158.92 187.14 159.1 183.77C159.32 181.53 159.35 179.28 159.21 177.04C158.93 174.22 157.97 171.41 158.51 168.63C159.38 164.15 163.83 160.52 167.46 164.7L167.48 164.69Z" fill="url(#paint22_linear_1_230)"/>
<path d="M137.39 226.28C137.39 226.28 134.06 227.17 132.14 225.27C130.22 223.37 131.21 217.28 131.21 217.28L165.69 175.47L166.37 187.22L137.39 226.28Z" fill="#FFAA71"/>
<path d="M184.33 227.57C184.33 227.57 189.44 234.64 192.72 234.81C196 234.98 215.77 199.8 215.77 199.8L220.1 196.47C220.1 196.47 210.7 194.95 209.43 196.67C208.16 198.39 193.56 222.47 193.56 222.47L191.48 221.42L184.32 227.57H184.33Z" fill="#FFAA71"/>
<path d="M146.42 262.52C146.42 262.52 144.9 272.2 146.42 276.18C147.94 280.16 161.29 303.94 161.29 303.94L157.84 340.37H168.71L173.95 303.94L167.95 276.18L175.02 260.62L146.42 262.52Z" fill="#231F20"/>
<path d="M156.52 274.03L179.87 314.63L182.73 345.39L193.23 342.84L191.48 305.19L176.64 259.86L153.87 262.02C153.87 262.02 154.43 270.7 156.51 274.03H156.52Z" fill="#231F20"/>
<path d="M184.22 345.04C184.22 345.04 185.45 352.98 186.01 353.55C186.57 354.12 190.97 353 190.97 353L198.25 348.3C198.25 348.3 198.25 346.02 192.77 347.36C192.77 347.36 190.33 347.5 190.14 343.57L184.21 345.04H184.22Z" fill="#FFAA71"/>
<path d="M168.72 340.31L167.96 343.94L174.18 348.29C174.18 348.29 173.93 349.44 171.73 349.94C169.53 350.44 159.72 349.63 159.59 348.64C159.46 347.65 161.17 344.53 161.31 344.19C161.45 343.85 162.13 340.3 162.13 340.3H168.73L168.72 340.31Z" fill="#FFAA71"/>
<path d="M154.6 195.24C154.6 195.24 144.61 197.67 143.26 200.92C141.91 204.17 130.94 214.31 131.22 218.31C131.49 222.31 139.01 227.46 139.01 227.46L144.76 221.85L145.41 259.75C145.44 261.63 146.66 263.28 148.45 263.86C152.78 265.26 157.43 264.98 163.4 263.01C171.89 260.2 176.85 260.48 176.85 260.48L175.39 220.26L182.3 229.26L191.51 221.36C191.51 221.36 177.98 199.35 175.67 197.99C173.36 196.62 163.03 195.08 163.03 195.08C163.03 195.08 158.47 197.85 154.61 195.23L154.6 195.24Z" fill="#68E1FD"/>
<path d="M154.6 195.24C154.6 195.24 144.61 197.67 143.26 200.92C141.91 204.17 130.94 214.31 131.22 218.31C131.49 222.31 139.01 227.46 139.01 227.46L144.76 221.85L145.41 259.75C145.44 261.63 146.66 263.28 148.45 263.86C152.78 265.26 157.43 264.98 163.4 263.01C171.89 260.2 176.85 260.48 176.85 260.48L175.39 220.26L182.3 229.26L191.51 221.36C191.51 221.36 177.98 199.35 175.67 197.99C173.36 196.62 163.03 195.08 163.03 195.08C163.03 195.08 158.47 197.85 154.61 195.23L154.6 195.24Z" fill="white"/>
<path d="M167.58 172.92C168.1 175.77 168.42 178.64 168.54 181.53C168.65 182.61 168.59 183.71 168.36 184.77C168.11 185.85 167.38 186.75 166.38 187.21C165.74 187.36 165.12 187.57 164.52 187.84C164.08 188.16 163.77 188.62 163.64 189.15C163.47 190.15 163.47 191.18 163.64 192.19C163.8 193.2 163.57 194.23 163.01 195.09C162.5 195.63 161.85 196 161.14 196.18C159.44 196.71 157.63 196.79 155.9 196.39C155.63 196.34 155.37 196.24 155.14 196.07C154.9 195.83 154.73 195.54 154.65 195.21C154.02 193.27 153.51 191.29 153.13 189.29C152.42 186.49 151.99 183.63 151.83 180.75C151.68 177.85 152.43 174.97 153.97 172.51C155.59 170.12 158.39 168.42 161.27 168.61C162.87 168.81 164.43 169.28 165.87 170.01C167.06 170.59 167.33 171.62 167.59 172.92H167.58Z" fill="#FFAA71"/>
<path d="M167.58 168.98C167.66 167.55 166.52 166.35 165.37 165.49C165.15 165.35 164.96 165.17 164.8 164.97C164.64 164.65 164.52 164.32 164.44 163.97C163.98 162.66 162.43 162.08 161.04 162.08C159.65 162.08 158.29 162.5 156.91 162.46C155.82 162.46 154.63 162.13 153.66 162.59C153.08 162.9 152.59 163.35 152.23 163.89C151.54 164.69 151.05 165.64 150.82 166.67C150.77 167.13 150.71 167.6 150.62 168.06C150.46 168.57 150.2 169.05 149.86 169.46C148.42 171.44 146.32 173.1 145.8 175.49C145.47 177.01 145.15 178.75 145.88 180.12C152.95 193.27 154.74 194.03 155.49 193.9C156.24 193.77 160.21 193.61 160.63 188.59C160.73 188.25 160.76 187.9 160.73 187.55C160.63 187.26 160.46 187 160.24 186.79C159.74 186.3 159.32 185.72 159.01 185.09C158.69 184.45 158.69 183.7 159.01 183.06C159.56 182.24 160.68 182.02 161.51 182.57C161.64 182.65 161.75 182.75 161.85 182.87C162.32 181.53 160.92 180.01 161.5 178.7C161.84 177.94 162.81 177.52 163.14 176.73C163.58 175.67 162.79 174.2 163.63 173.41C163.91 173.21 164.21 173.04 164.53 172.9C165.01 172.6 165.11 172.21 165.34 171.75C165.57 171.29 165.64 171.33 166.14 171.07C166.95 170.67 167.49 169.88 167.57 168.98H167.58Z" fill="#231F20"/>
<path d="M186.61 349.19C188.18 348.81 189.13 347.24 190.45 346.3C190.76 346.07 191.11 345.9 191.49 345.82C191.92 345.79 192.35 345.81 192.78 345.88C193.88 345.98 194.98 345.73 196.09 345.73C196.64 345.73 197.19 345.79 197.72 345.91C198.29 346.01 198.81 346.28 199.24 346.67C199.67 347.07 199.81 347.7 199.58 348.25C199.4 348.56 199.13 348.82 198.82 349.01C196.29 350.76 193.74 352.5 191.16 354.23C190.4 354.8 189.55 355.25 188.66 355.56C187.81 355.8 186.91 355.78 186.06 355.51C185.72 355.42 185.42 355.23 185.18 354.97C185 354.73 184.88 354.45 184.82 354.16C184.52 353.1 183.95 351.56 184.17 350.45C184.38 349.33 185.72 349.42 186.61 349.2V349.19Z" fill="#231F20"/>
<path d="M159.89 345.52L158.99 348.56C158.79 348.99 158.79 349.49 158.99 349.92C159.24 350.21 159.59 350.39 159.97 350.44C160.86 350.69 161.77 350.86 162.69 350.96C164.09 351.06 165.49 350.79 166.89 350.83C168.48 350.88 170.08 351.32 171.61 350.91C172.54 350.6 173.41 350.14 174.18 349.54L175.64 348.53C175.76 348.47 175.86 348.36 175.91 348.23C175.96 348.04 175.81 347.86 175.66 347.73C174.55 346.77 173.02 346.52 171.65 345.98C170.4 345.49 169.27 344.73 168.33 343.77C168.15 343.54 167.91 343.38 167.63 343.29C167.17 343.2 166.78 343.59 166.39 343.84C165.59 344.27 164.67 344.43 163.77 344.3C163.09 344.2 163.07 343.85 162.65 343.41C161.34 342.07 160.19 344.49 159.89 345.51V345.52Z" fill="#231F20"/>
<defs>
<linearGradient id="paint0_linear_1_230" x1="-8862.02" y1="1150.64" x2="-8862.02" y2="1533.39" gradientUnits="userSpaceOnUse">
<stop stop-color="#FCC400"/>
<stop offset="0.162" stop-color="#FBC000"/>
<stop offset="0.307" stop-color="#FBB500"/>
<stop offset="0.446" stop-color="#FBA300"/>
<stop offset="0.581" stop-color="#FA8900"/>
<stop offset="0.712" stop-color="#FA6800"/>
<stop offset="0.842" stop-color="#F93F00"/>
<stop offset="0.967" stop-color="#F81000"/>
<stop offset="1" stop-color="#F80300"/>
</linearGradient>
<linearGradient id="paint1_linear_1_230" x1="146.91" y1="194.4" x2="343.36" y2="194.4" gradientUnits="userSpaceOnUse">
<stop stop-color="#231F20"/>
<stop offset="1" stop-color="#68E1FD"/>
</linearGradient>
<linearGradient id="paint2_linear_1_230" x1="241.4" y1="28.91" x2="269.65" y2="96.71" gradientUnits="userSpaceOnUse">
<stop stop-color="white" stop-opacity="0"/>
<stop offset="1" stop-color="white"/>
</linearGradient>
<linearGradient id="paint3_linear_1_230" x1="54.1103" y1="22.57" x2="53.7703" y2="34.4" gradientUnits="userSpaceOnUse">
<stop stop-color="#68E1FD"/>
<stop offset="1" stop-color="#E7FAFF"/>
</linearGradient>
<linearGradient id="paint4_linear_1_230" x1="68.2502" y1="22.97" x2="67.9102" y2="34.81" gradientUnits="userSpaceOnUse">
<stop stop-color="#68E1FD"/>
<stop offset="1" stop-color="#E7FAFF"/>
</linearGradient>
<linearGradient id="paint5_linear_1_230" x1="82.3701" y1="23.37" x2="82.0401" y2="35.21" gradientUnits="userSpaceOnUse">
<stop stop-color="#68E1FD"/>
<stop offset="1" stop-color="#E7FAFF"/>
</linearGradient>
<linearGradient id="paint6_linear_1_230" x1="125.53" y1="44.4499" x2="-39.8604" y2="102.655" gradientUnits="userSpaceOnUse">
<stop stop-color="#8E55F1"/>
<stop offset="0.140795" stop-color="#8B48DF"/>
<stop offset="0.274905" stop-color="#E04DD9"/>
<stop offset="0.492309" stop-color="#F496C8"/>
<stop offset="0.633104" stop-color="#FAD2BA"/>
<stop offset="0.856964" stop-color="#FEF7E5"/>
<stop offset="1" stop-color="#FFF5BF"/>
</linearGradient>
<linearGradient id="paint7_linear_1_230" x1="150.52" y1="74.98" x2="108.59" y2="81.74" gradientUnits="userSpaceOnUse">
<stop stop-color="white" stop-opacity="0"/>
<stop offset="1" stop-color="white"/>
</linearGradient>
<linearGradient id="paint8_linear_1_230" x1="156.41" y1="111.46" x2="114.48" y2="118.22" gradientUnits="userSpaceOnUse">
<stop stop-color="white" stop-opacity="0"/>
<stop offset="1" stop-color="white"/>
</linearGradient>
<linearGradient id="paint9_linear_1_230" x1="162.29" y1="147.93" x2="120.36" y2="154.69" gradientUnits="userSpaceOnUse">
<stop stop-color="white" stop-opacity="0"/>
<stop offset="1" stop-color="white"/>
</linearGradient>
<linearGradient id="paint10_linear_1_230" x1="168.18" y1="184.43" x2="126.25" y2="191.2" gradientUnits="userSpaceOnUse">
<stop stop-color="white" stop-opacity="0"/>
<stop offset="1" stop-color="white"/>
</linearGradient>
<linearGradient id="paint11_linear_1_230" x1="457.207" y1="44.4499" x2="303.591" y2="93.7263" gradientUnits="userSpaceOnUse">
<stop stop-color="#8E55F1"/>
<stop offset="0.140795" stop-color="#8B48DF"/>
<stop offset="0.274905" stop-color="#E04DD9"/>
<stop offset="0.492309" stop-color="#F496C8"/>
<stop offset="0.633104" stop-color="#FAD2BA"/>
<stop offset="0.856964" stop-color="#FEF7E5"/>
<stop offset="1" stop-color="#FFF5BF"/>
</linearGradient>
<linearGradient id="paint12_linear_1_230" x1="494.82" y1="173.58" x2="305.53" y2="170.75" gradientUnits="userSpaceOnUse">
<stop stop-color="white" stop-opacity="0"/>
<stop offset="1" stop-color="white"/>
</linearGradient>
<linearGradient id="paint13_linear_1_230" x1="250.81" y1="116.67" x2="250.81" y2="425.74" gradientUnits="userSpaceOnUse">
<stop stop-opacity="0"/>
<stop offset="0.97"/>
</linearGradient>
<linearGradient id="paint14_linear_1_230" x1="163.39" y1="345.41" x2="167.99" y2="345.41" gradientUnits="userSpaceOnUse">
<stop stop-opacity="0"/>
<stop offset="0.97"/>
</linearGradient>
<linearGradient id="paint15_linear_1_230" x1="195.96" y1="345.41" x2="200.55" y2="345.41" gradientUnits="userSpaceOnUse">
<stop stop-opacity="0"/>
<stop offset="0.97"/>
</linearGradient>
<linearGradient id="paint16_linear_1_230" x1="165.69" y1="249.91" x2="198.25" y2="249.91" gradientUnits="userSpaceOnUse">
<stop stop-opacity="0"/>
<stop offset="0.97"/>
</linearGradient>
<linearGradient id="paint17_linear_1_230" x1="165.69" y1="283.58" x2="198.25" y2="283.58" gradientUnits="userSpaceOnUse">
<stop stop-opacity="0"/>
<stop offset="0.97"/>
</linearGradient>
<linearGradient id="paint18_linear_1_230" x1="165.69" y1="317.24" x2="198.25" y2="317.24" gradientUnits="userSpaceOnUse">
<stop stop-opacity="0"/>
<stop offset="0.97"/>
</linearGradient>
<linearGradient id="paint19_linear_1_230" x1="165.69" y1="350.92" x2="198.25" y2="350.92" gradientUnits="userSpaceOnUse">
<stop stop-opacity="0"/>
<stop offset="0.97"/>
</linearGradient>
<linearGradient id="paint20_linear_1_230" x1="165.69" y1="384.58" x2="198.25" y2="384.58" gradientUnits="userSpaceOnUse">
<stop stop-opacity="0"/>
<stop offset="0.97"/>
</linearGradient>
<linearGradient id="paint21_linear_1_230" x1="165.69" y1="418.25" x2="198.25" y2="418.25" gradientUnits="userSpaceOnUse">
<stop stop-opacity="0"/>
<stop offset="0.97"/>
</linearGradient>
<linearGradient id="paint22_linear_1_230" x1="158.36" y1="179.65" x2="181.94" y2="179.65" gradientUnits="userSpaceOnUse">
<stop stop-color="#231F20"/>
<stop offset="1" stop-color="#68E1FD"/>
</linearGradient>
</defs>
</svg>
