<svg width="500" height="500" viewBox="0 0 500 500" fill="none" xmlns="http://www.w3.org/2000/svg">
<path d="M464.648 349.976C466.754 293.351 372.36 243.873 253.812 239.464C135.264 235.055 37.455 277.384 35.349 334.009C33.2429 390.633 127.638 440.111 246.185 444.52C364.733 448.929 462.542 406.6 464.648 349.976Z" fill="#999999"/>
<path d="M464.488 332.461C467.266 275.865 373.464 225.27 254.975 219.454C136.487 213.638 38.1813 254.804 35.4034 311.401C32.6255 367.997 126.427 418.592 244.916 424.408C363.404 430.224 461.71 389.058 464.488 332.461Z" fill="#F1F1F1"/>
<path d="M249.3 395.9C345.453 395.9 423.4 358.65 423.4 312.7C423.4 266.75 345.453 229.5 249.3 229.5C153.147 229.5 75.2002 266.75 75.2002 312.7C75.2002 358.65 153.147 395.9 249.3 395.9Z" fill="#A1D9DF"/>
<path d="M249.3 382.5C345.453 382.5 423.4 345.25 423.4 299.3C423.4 253.35 345.453 216.1 249.3 216.1C153.147 216.1 75.2002 253.35 75.2002 299.3C75.2002 345.25 153.147 382.5 249.3 382.5Z" fill="url(#paint0_linear_5_270)"/>
<path d="M327.9 55.1V138.4L402.9 180.9V97.7L327.9 55.1Z" fill="url(#paint1_linear_5_270)"/>
<path d="M160.6 347.3L169.5 342.2L190.9 329.9L217 314.9L239.4 302L246.8 297.8C248 297.1 249.2 296.5 250.3 295.8L250.5 295.7C251 295.4 251.2 294.7 250.9 294.1C250.8 293.9 250.5 293.7 250.3 293.6L229.2 289.9C226.4 289.4 223.5 288.8 220.6 288.4C219.5 288.3 218.3 289.3 217.3 289.9L198.8 301L174.8 315.6C170.2 318.4 165.5 321.1 161 324L160.8 324.1C159.6 324.9 160.7 326.8 161.9 326L181.9 313.8L213.5 294.6L220.8 290.2L219.9 290.3L246 295L249.7 295.6L249.4 293.5L240.5 298.6L219.1 311L193 326L170.6 339L163.2 343.2C162 343.9 160.8 344.5 159.7 345.2L159.6 345.3C159.1 345.6 158.9 346.3 159.2 346.8C159.5 347.3 160.1 347.6 160.6 347.3Z" fill="#F1F1F1"/>
<path d="M249.2 295.3L262 308.6L262.2 306.8L239.3 320.3L203 341.9L194.7 346.8C194.1 347.1 194 347.8 194.3 348.4C194.6 349 195.3 349.1 195.9 348.8L218.8 335.3L255.2 313.8L263.5 308.9C264 308.6 264.2 307.9 263.9 307.3C263.9 307.2 263.8 307.2 263.7 307.1L250.9 293.7C249.8 292.7 248.2 294.3 249.2 295.3Z" fill="#F1F1F1"/>
<path d="M159.8 329.7C163.39 329.7 166.3 327.775 166.3 325.4C166.3 323.025 163.39 321.1 159.8 321.1C156.21 321.1 153.3 323.025 153.3 325.4C153.3 327.775 156.21 329.7 159.8 329.7Z" fill="#F1F1F1"/>
<path d="M159.8 350.6C163.39 350.6 166.3 348.675 166.3 346.3C166.3 343.925 163.39 342 159.8 342C156.21 342 153.3 343.925 153.3 346.3C153.3 348.675 156.21 350.6 159.8 350.6Z" fill="#F1F1F1"/>
<path d="M196 352.7C199.59 352.7 202.5 350.775 202.5 348.4C202.5 346.025 199.59 344.1 196 344.1C192.41 344.1 189.5 346.025 189.5 348.4C189.5 350.775 192.41 352.7 196 352.7Z" fill="#F1F1F1"/>
<path d="M286 225.5C286 225.5 283.5 290.1 281.4 296.8C279.3 303.5 259.6 325.3 207.8 316C156 306.7 203.6 157.9 203.6 157.9" fill="#1B4075"/>
<path d="M228.7 72.6C228.7 72.6 308.4 75.6 319.1 138.9C329.8 202.2 289.2 249.1 224.2 247.7" fill="#1B4075"/>
<path d="M134.1 138.4C134.1 138.4 129 163.4 131.2 177C133.4 190.6 126 215.8 130.7 235.1C135.4 254.4 142.8 300.2 165.5 301.6C188.2 303 247.8 292 261.4 265.8C275 239.6 312.5 154.2 289.8 115.5C267.1 76.8 227.2 65.9 190.7 76.4C154.2 86.9 136.2 125.1 134.1 138.4Z" fill="url(#paint2_linear_5_270)"/>
<path opacity="0.78" d="M203.4 73.6C203.4 73.6 135.1 96 157.5 131.2C179.9 166.4 280.6 102.4 280.6 102.4C280.6 102.4 262.8 66.8 203.4 73.6Z" fill="#F1F1F1"/>
<path d="M292.6 160.9C290 160.2 287.4 159.9 284.7 159.8C252.6 159.6 230.9 190.8 235.4 221C237.9 238.2 250 254.1 269 251.3C295.6 247.5 317.6 207.5 312.9 182.5C310.9 172 303 163.5 292.6 160.9Z" fill="url(#paint3_linear_5_270)"/>
<path opacity="0.47" d="M292.6 160.9C290 160.2 287.4 159.9 284.7 159.8C252.6 159.6 230.9 190.8 235.4 221C237.9 238.2 250 254.1 269 251.3C295.6 247.5 317.6 207.5 312.9 182.5C310.9 172 303 163.5 292.6 160.9Z" fill="#1B4075"/>
<path d="M299 163.3C296.4 162.6 293.8 162.3 291.1 162.2C259 162 237.3 193.1 241.8 223.4C244.3 240.6 256.4 256.5 275.4 253.7C302 249.9 324 209.9 319.3 184.9C317.3 174.4 309.4 165.9 299 163.3Z" fill="url(#paint4_linear_5_270)"/>
<path d="M211.9 200.8C200.9 201.2 190 200.8 180.1 195.5C177.1 193.9 174.5 198.4 177.5 200C188.2 205.7 200 206.4 212 206C215.3 205.9 215.3 200.6 211.9 200.8Z" fill="#F1F1F1"/>
<path d="M153.5 191.1C145.1 191 136.9 188.4 130 183.7C126.9 181.6 124 186.6 127.1 188.7C134.9 193.9 144.1 196.8 153.5 196.9C157.2 197 157.2 191.2 153.5 191.1Z" fill="#F1F1F1"/>
<path d="M278.2 143.5L274.9 132C273.5 127.2 275.5 122.1 279.8 119.6C285 116.6 291.6 118.3 294.7 123.5C295 124.1 295.3 124.7 295.5 125.3L299.5 136.4C301.3 141.5 299.2 147.1 294.5 149.7L293.8 150.1C288.5 153 281.9 151 279 145.8C278.8 144.9 278.5 144.2 278.2 143.5Z" fill="#F1F1F1"/>
<path d="M360.6 301.9C361.4 303.7 364.7 328.6 364.5 333.5C364.3 338.4 356.9 338.9 354.6 338.7C352.3 338.5 347.9 336.5 345.1 336.3C342.3 336.1 326.7 333.3 327.1 329.1C327.5 324.9 330.2 321 333.8 320.8C337.4 320.6 346.8 321.2 346.8 321.2L345.8 298.6" fill="#FF6753"/>
<path d="M363.6 326.7C356.1 329.2 348 329.1 340.6 326.4C337.8 325.5 335.5 323.4 334.3 320.7H334C330.5 320.9 327.8 324.8 327.3 329C326.8 333.2 342.4 336.2 345.2 336.3C348 336.4 352.4 338.5 354.7 338.7C357 338.9 364.3 338.5 364.6 333.6C364.6 331.2 364.5 328.9 364.2 326.5L363.6 326.7Z" fill="#1B4075"/>
<path d="M294.3 131.4C294.3 131.4 290.8 126.3 290.8 123.8C290.8 121.3 293.8 124.6 293.8 124.6L293.4 118.3C293.4 118.3 295.8 122 296.9 123.7C298 125.4 301.9 133.6 302.6 135C303.3 136.4 303.5 136 303.5 136C303.5 136 301.9 141.1 300 141.5C298.1 141.9 294.7 138.7 294.7 138.7L294.3 131.4Z" fill="#FF6753"/>
<path d="M305.9 133.6C305.9 133.6 299 139.7 300.2 146.6C300.2 146.6 308.9 163.8 318.2 166.6C327.5 169.4 332.9 151 330.3 148.3C327.7 145.6 305.9 133.6 305.9 133.6Z" fill="#3FAAD7" fill-opacity="0.75"/>
<path d="M284.1 151.4C284.1 151.4 280.9 148.5 281.5 147.5C282.1 146.5 283.5 138.3 282.8 136.7C281.6 133.8 278.5 140.3 278.5 140.3L277.6 128.8C277.6 128.8 274.2 132.4 274.4 134.5C274.6 136.6 274.2 150.4 274.4 151.4C274.6 152.4 277.4 159.8 277.4 159.8" fill="#FF6753"/>
<path d="M357.4 184.2C357.3 183.8 364.2 196 364.5 211.6C364.7 223.4 365.4 318 365.4 318C365.4 318 355.4 323.9 336.5 318.4C333.8 317.6 330.3 236.9 330.3 236.9L336.8 195.3" fill="#1B4075"/>
<path d="M322.1 330.5C322.8 332.3 324.9 357.4 324.4 362.3C323.9 367.2 316.5 367.3 314.3 367C312.1 366.7 307.7 364.4 304.9 364.2C302.1 364 286.7 360.2 287.3 356.1C287.9 352 290.8 348.2 294.4 348.1C298 348 307.4 349.2 307.4 349.2L307.6 326.6" fill="#FF6753"/>
<path d="M330.6 302C330.7 301.5 330.9 301.1 331 300.7C332.8 288.5 336.1 276.5 341 265.1C342.2 258.6 343 254.3 343 254C348.6 231.6 344.4 225.5 345.8 191.7L321.6 193C321.6 193 308.2 237.2 303.3 277.1C302.1 286.7 300.6 338.7 300.6 338.7C300.6 338.7 312.6 347 327.1 342.3L327.6 339.5C324.6 327.1 327.3 314.2 330.6 302Z" fill="#1B4075"/>
<path d="M320.1 168.4C319.5 159 316.1 154.1 318.2 145C324.9 137.7 337.6 128.8 339 128.5L346.2 130.2C352.4 131.6 356.8 137.1 357 143.4C357.4 157.9 357.9 182.2 357.3 184.1C356.8 185.8 342.5 198.2 321.5 192.9C321 184.8 320.7 176.6 320.1 168.4Z" fill="#3FAAD7"/>
<path d="M322.8 113.1C322.8 113.1 319.8 134.9 327.9 136.7C336 138.5 344.7 129 345.1 124.5C345.5 120 333.5 105.3 322.8 113.1Z" fill="#FF6753"/>
<path d="M325.3 101.9C324.4 102.2 317.1 106.7 317.5 109.7C317.9 112.7 319.2 119.4 321.4 118.3C323.6 117.2 323.5 113.2 325.3 116.2C327.1 119.2 328.5 121.5 330.3 120.7C331.4 120.3 332.7 120.3 333.7 120.8C333.7 120.8 333.8 136.5 335.6 135.5C337.4 134.5 345.1 131.2 347.8 126.4C349.6 123.4 350 117.8 349.5 113.3C349.4 111.2 348.8 109.1 347.8 107.2C345.6 104.1 331.3 99.6 325.3 101.9Z" fill="#FBB03B"/>
<path d="M347.9 107.3C347.9 107.3 356.6 118.6 355.9 132.4C355.2 146.2 330.4 148.3 330.4 148.3L333.8 120.8" fill="#FBB03B"/>
<path d="M276.4 159.4C277.6 155.6 280.4 152.5 284.1 151C290.9 157.5 299.2 164.5 302 163.4C306 161.8 314 143.1 325.4 142.1C336.8 141.1 336.5 156.9 336.5 156.9C336.5 156.9 316.6 187.6 305.8 188.1C297.1 188.5 281.3 173.3 275.1 165.9C275.4 163.7 275.8 161.5 276.4 159.4Z" fill="#3FAAD7"/>
<path d="M318.7 354.4C311.4 356 303.5 357.2 297.9 351C297.1 350.2 296.5 349.2 296.1 348.1C295.5 348.1 294.9 348.1 294.4 348.1C290.9 348.1 288 352 287.3 356.1C286.6 360.2 302.1 363.9 304.9 364.2C307.7 364.5 312 366.7 314.3 367C316.6 367.3 324 367.2 324.4 362.3C324.5 359.5 324.5 356.8 324.3 354C322.4 354.5 320.5 354.6 318.7 354.4Z" fill="#1B4075"/>
<path opacity="0.78" d="M353.4 213.7C353.5 212.6 351.9 212.2 351.8 213.3C345.7 256.2 323.3 296.7 326.7 340.9C326.8 342 328.5 342 328.4 340.9C325 296.8 347.3 256.5 353.4 213.7Z" fill="#F1F1F1"/>
<defs>
<linearGradient id="paint0_linear_5_270" x1="420.543" y1="215.909" x2="297.529" y2="484.192" gradientUnits="userSpaceOnUse">
<stop stop-color="#8E55F1"/>
<stop offset="0.140795" stop-color="#8B48DF"/>
<stop offset="0.274905" stop-color="#E04DD9"/>
<stop offset="0.492309" stop-color="#F496C8"/>
<stop offset="0.633104" stop-color="#FAD2BA"/>
<stop offset="0.856964" stop-color="#FEF7E5"/>
<stop offset="1" stop-color="#FFF5BF"/>
</linearGradient>
<linearGradient id="paint1_linear_5_270" x1="402.285" y1="54.9558" x2="292.246" y2="123.329" gradientUnits="userSpaceOnUse">
<stop stop-color="#8E55F1"/>
<stop offset="0.140795" stop-color="#8B48DF"/>
<stop offset="0.274905" stop-color="#E04DD9"/>
<stop offset="0.492309" stop-color="#F496C8"/>
<stop offset="0.633104" stop-color="#FAD2BA"/>
<stop offset="0.856964" stop-color="#FEF7E5"/>
<stop offset="1" stop-color="#FFF5BF"/>
</linearGradient>
<linearGradient id="paint2_linear_5_270" x1="-3400.58" y1="953.03" x2="-3400.58" y2="1251.53" gradientUnits="userSpaceOnUse">
<stop stop-color="#FCC400"/>
<stop offset="0.162" stop-color="#FBC000"/>
<stop offset="0.307" stop-color="#FBB500"/>
<stop offset="0.446" stop-color="#FBA300"/>
<stop offset="0.581" stop-color="#FA8900"/>
<stop offset="0.712" stop-color="#FA6800"/>
<stop offset="0.842" stop-color="#F93F00"/>
<stop offset="0.967" stop-color="#F81000"/>
<stop offset="1" stop-color="#F80300"/>
</linearGradient>
<linearGradient id="paint3_linear_5_270" x1="-1420.88" y1="512.676" x2="-1420.88" y2="632.319" gradientUnits="userSpaceOnUse">
<stop stop-color="#FCC400"/>
<stop offset="0.162" stop-color="#FBC000"/>
<stop offset="0.307" stop-color="#FBB500"/>
<stop offset="0.446" stop-color="#FBA300"/>
<stop offset="0.581" stop-color="#FA8900"/>
<stop offset="0.712" stop-color="#FA6800"/>
<stop offset="0.842" stop-color="#F93F00"/>
<stop offset="0.967" stop-color="#F81000"/>
<stop offset="1" stop-color="#F80300"/>
</linearGradient>
<linearGradient id="paint4_linear_5_270" x1="-1414.48" y1="515.076" x2="-1414.48" y2="634.719" gradientUnits="userSpaceOnUse">
<stop stop-color="#FCC400"/>
<stop offset="0.162" stop-color="#FBC000"/>
<stop offset="0.307" stop-color="#FBB500"/>
<stop offset="0.446" stop-color="#FBA300"/>
<stop offset="0.581" stop-color="#FA8900"/>
<stop offset="0.712" stop-color="#FA6800"/>
<stop offset="0.842" stop-color="#F93F00"/>
<stop offset="0.967" stop-color="#F81000"/>
<stop offset="1" stop-color="#F80300"/>
</linearGradient>
</defs>
</svg>
